<?xml version="1.0" encoding="UTF-8"?>
<svg width="186px" height="92px" viewBox="0 0 186 92" version="1.1" xmlns="http://www.w3.org/2000/svg" xmlns:xlink="http://www.w3.org/1999/xlink">
    <!-- Generator: Sketch 52.2 (67145) - http://www.bohemiancoding.com/sketch -->
    <title>refer-footer1</title>
    <desc>Created with Sketch.</desc>
    <defs>
        <linearGradient x1="50.2412613%" y1="99.5840915%" x2="50.2412613%" y2="-86.9248765%" id="linearGradient-1">
            <stop stop-color="#67CFA7" offset="0%"></stop>
            <stop stop-color="#196E4B" offset="100%"></stop>
        </linearGradient>
        <linearGradient x1="49.9612102%" y1="97.7591036%" x2="49.9612102%" y2="-236.694678%" id="linearGradient-2">
            <stop stop-color="#67CFA7" offset="0%"></stop>
            <stop stop-color="#196E4B" offset="100%"></stop>
        </linearGradient>
        <linearGradient x1="37.7694479%" y1="112.940085%" x2="72.7853358%" y2="29.0865868%" id="linearGradient-3">
            <stop stop-color="#586FFF" offset="0%"></stop>
            <stop stop-color="#B464F2" offset="100%"></stop>
        </linearGradient>
        <linearGradient x1="101.570988%" y1="51.2548604%" x2="-28.4417956%" y2="45.3870626%" id="linearGradient-4">
            <stop stop-color="#E69010" offset="0%"></stop>
            <stop stop-color="#FFC517" offset="100%"></stop>
        </linearGradient>
        <linearGradient x1="0.016352014%" y1="50.0200833%" x2="100%" y2="50.0200833%" id="linearGradient-5">
            <stop stop-color="#E69010" offset="0%"></stop>
            <stop stop-color="#FFC517" offset="100%"></stop>
        </linearGradient>
        <linearGradient x1="59.5411887%" y1="78.1215223%" x2="-6.725756%" y2="-18.1581006%" id="linearGradient-6">
            <stop stop-color="#E69010" offset="0%"></stop>
            <stop stop-color="#FFC517" offset="100%"></stop>
        </linearGradient>
    </defs>
    <g id="Desktop-Web" stroke="none" stroke-width="1" fill="none" fill-rule="evenodd">
        <g id="Refer" transform="translate(-180.000000, -1412.000000)">
            <g id="footer" transform="translate(0.000000, 1404.000000)">
                <g id="refer">
                    <g id="refer-illustration">
                        <g id="refer-footer1" transform="translate(180.000000, 7.000000)">
                            <path d="M83.22,83.19 L153.72,83.19" id="Path" stroke="#4C45FF"></path>
                            <g id="Desktop-Web">
                                <g id="contact-page">
                                    <g id="footer">
                                        <g id="refer">
                                            <g id="refer-illustration">
                                                <g id="Page-1">
                                                    <g id="Group-132">
                                                        <path d="M116,44.13 L128.89,44.13 L128.89,78.47 C128.89,80.32 129.1,82.54 128.41,82.6 L116.68,82.6 C115.92,82.6 116,81.03 116,78.99 L116,44.13 Z" id="Fill-4" fill="url(#linearGradient-1)"></path>
                                                        <path d="M96.46,68.48 L109.35,68.48 L109.35,81.16 C109.35,82.06 109.02,82.74 108.35,82.76 C107.89,82.76 104.386667,82.76 97.84,82.76 C97.0833699,82.76 96.47,82.1466301 96.47,81.39 L96.46,68.48 Z" id="Fill-130" fill="url(#linearGradient-2)"></path>
                                                        <path d="M48,23.54 C48.5226911,30.2302291 43.9905259,36.2659765 37.42,37.63 C37.42,37.63 36.03,37.9 36.59,41.52 C39.1774176,44.0810057 42.6900932,45.4875185 46.33,45.42 C52.18,45.14 41.87,50.15 41.87,50.15 L31,51.55 L20.7,47.37 L20.14,32.06 L23.76,19.81 L32.67,14.81 L44.67,12.58 C45.67,15.58 46.94,18.58 47.67,21.58 C47.8328651,22.2233253 47.9432276,22.8788121 48,23.54" id="Fill-32" fill="#E2BAAC"></path>
                                                        <path d="M13.48,73.54 C18.05,83.02 11.28,85.83 12.27,93.54 L51.74,93.54 C50.92,90.05 50,86.31 50,82.73 C50,79.15 50.55,81.06 50.55,77.44 C50.504818,75.2300023 49.5882832,73.1273638 48,71.59 C52.7029232,72.0575642 57.401067,70.6567415 61.08,67.69 C54.08,39.3 46.33,45.42 46.33,45.42 C43.33,47.74 40.82,50.9 36.33,50.5 C35.5396632,50.4050208 34.7597205,50.2376511 34,50 C26.6436343,47.927385 19.4935119,45.1824878 12.64,41.8 C12.64,41.8 4.57,52.94 2.64,58.23 C0.71,63.52 10.44,74.1 10.44,74.1 L13.48,73.54 Z" id="Path" fill="url(#linearGradient-3)"></path>
                                                        <g id="Fill-36">
                                                            <path d="M40.56,4 C39.04,3.43 38.13,2.31 36.56,1.74 C33.7036498,0.797010663 30.6286723,0.741228758 27.74,1.58 C23.49,3 20.89,7.19 19,11.23 C17.3893474,14.6664444 16.0128752,18.2078534 14.88,21.83 C13.88,24.83 13.67,28.67 11.88,31.18 C8.26,36.25 2.54,38.71 0.6,45.18 C-0.489779822,49.0741826 -0.0646084515,53.2365746 1.79,56.83 C5.37,63.83 13.79,68.29 21.55,67.69 C30.3053102,66.9741852 37.0004879,59.583234 36.85,50.8 C36.75,47.46 35.63,44.24 34.79,41.01 C33.95,37.78 33.42,34.3 34.45,31.12 C36.45,25.12 43.25,25.17 48.35,23.51 C53.64,21.79 55.02,15.51 52.48,10.84 C50.38,7 46,4.83 41.75,4.31 C41.3431561,4.25066446 40.9440839,4.14670449 40.56,4" id="path-2" fill="#4E44D8"></path>
                                                            <path d="M40.56,4 C39.04,3.43 38.13,2.31 36.56,1.74 C33.7036498,0.797010663 30.6286723,0.741228758 27.74,1.58 C23.49,3 20.89,7.19 19,11.23 C17.3893474,14.6664444 16.0128752,18.2078534 14.88,21.83 C13.88,24.83 13.67,28.67 11.88,31.18 C8.26,36.25 2.54,38.71 0.6,45.18 C-0.489779822,49.0741826 -0.0646084515,53.2365746 1.79,56.83 C5.37,63.83 13.79,68.29 21.55,67.69 C30.3053102,66.9741852 37.0004879,59.583234 36.85,50.8 C36.75,47.46 35.63,44.24 34.79,41.01 C33.95,37.78 33.42,34.3 34.45,31.12 C36.45,25.12 43.25,25.17 48.35,23.51 C53.64,21.79 55.02,15.51 52.48,10.84 C50.38,7 46,4.83 41.75,4.31 C41.3431561,4.25066446 40.9440839,4.14670449 40.56,4" id="path-2-2" fill="#19144A"></path>
                                                        </g>
                                                        <path d="M81.07,60.34 L80.77,60.9 C80.77,61 80.77,61.07 80.99,61.05 C81.1497017,61.0407894 81.2966997,60.9599405 81.39,60.83 L81.69,60.28 C81.69,60.18 81.69,60.11 81.48,60.13 C81.3184675,60.1338432 81.1675109,60.2111624 81.07,60.34" id="Fill-38" fill="#001926"></path>
                                                        <path d="M83.73,42.34 C83.6805781,42.3089442 83.6200555,42.3010284 83.564309,42.318329 C83.5085625,42.3356297 83.4631557,42.3764202 83.44,42.43 C83.3837796,42.5386223 83.4182377,42.6721474 83.52,42.74 L85.94,44.14 C85.9888946,44.1686003 86.0472696,44.1762351 86.1018749,44.1611716 C86.1564803,44.146108 86.2026845,44.1096238 86.23,44.06 C86.2862204,43.9513777 86.2517623,43.8178526 86.15,43.75 L83.73,42.34 Z" id="Fill-40" fill="#001926"></path>
                                                        <path d="M87.77,47.24 L86.46,49.71 C86.46,49.79 86.64,49.92 86.78,49.93 C86.69,49.93 86.65,49.93 86.69,49.81 L88,47.34 C88.1017569,47.2199902 88.2441564,47.1416704 88.4,47.12 C88.52,47.12 88.6,47.12 88.62,47.17 C88.64,47.22 88.32,46.99 88.17,47.02 C88.0177504,47.0439806 87.8792686,47.1220985 87.78,47.24" id="Fill-42" fill="#758492"></path>
                                                        <path d="M86,50.58 L85,52.45 C85,52.51 85.19,52.62 85.34,52.63 C85.25,52.63 85.2,52.58 85.23,52.53 L86.23,50.66 C86.3261275,50.5640451 86.4543604,50.5070527 86.59,50.5 C86.71,50.5 86.79,50.5 86.82,50.5 C86.85,50.5 86.5,50.36 86.36,50.38 C86.2215035,50.3873796 86.0902363,50.4441438 85.99,50.54" id="Fill-44" fill="#758492"></path>
                                                        <path d="M86.81,50.54 C86.81,50.54 86.7,50.54 86.58,50.54 C86.4443604,50.5470527 86.3161275,50.6040451 86.22,50.7 L85.22,52.57 C85.22,52.57 85.22,52.66 85.33,52.67 L85.44,52.67 C85.5802956,52.6617682 85.7123674,52.6010865 85.81,52.5 L86.81,50.63" id="Fill-46" fill="#AFB5BD"></path>
                                                        <path d="M86.8,49.93 L86.9,49.93 C87.0543463,49.9052398 87.1936433,49.8230903 87.29,49.7 L88.6,47.24 C88.6,47.24 88.6,47.19 88.6,47.17 C88.6,47.12 88.5,47.1 88.38,47.12 C88.2241564,47.1416704 88.0817569,47.2199902 87.98,47.34 L86.67,49.81 C86.67,49.88 86.67,49.92 86.77,49.93" id="Fill-48" fill="#AFB5BD"></path>
                                                        <path d="M82.16,42.47 C81.9096482,42.3695073 81.6293143,42.3744261 81.3826421,42.4836398 C81.1359698,42.5928535 80.9438863,42.7970965 80.85,43.05 L73.41,57.21 C73.1018498,57.685806 73.2057517,58.3178759 73.65,58.67 L78.16,61.27 C78.4078988,61.367839 78.6845967,61.3626765 78.9286732,61.2556583 C79.1727498,61.1486401 79.3640105,60.9486208 79.46,60.7 L86.91,46.64 C87.2252882,46.1628535 87.1304436,45.524808 86.69,45.16 L82.16,42.47 Z" id="Fill-50" fill="#EDF5F6"></path>
                                                        <path d="M88,46.33 L86.2,49.68 L86.46,49.68 L87.77,47.21 C87.8692686,47.0920985 88.0077504,47.0139806 88.16,46.99 C88.31,46.99 88.62,47.07 88.61,47.14 C88.61,47.14 88.61,47.14 88.61,47.21 L87.29,49.7 L87.64,49.7 L89.64,45.9 L88,46.33 Z" id="Fill-52" fill="#00173B"></path>
                                                        <path d="M80.77,60.9 L81.07,60.34 C81.1682907,60.2106731 81.3178939,60.1303982 81.48,60.12 C81.65,60.12 81.74,60.18 81.69,60.28 L81.39,60.83 C81.2966997,60.9599405 81.1497017,61.0407894 80.99,61.05 C80.81,61.05 80.72,61.05 80.77,60.9 M85,52.45 L86,50.58 C86.1002363,50.4841438 86.2315035,50.4273796 86.37,50.42 C86.51,50.42 86.81,50.48 86.83,50.54 L85.83,52.41 C85.7323674,52.5110865 85.6002956,52.5717682 85.46,52.58 L85.35,52.58 C85.2,52.58 84.97,52.46 85.01,52.4 M78.47,62.84 C79.4937468,62.9648149 80.5155496,62.5932502 81.22,61.84 L87.64,49.73 L87.29,49.73 C87.1936433,49.8530903 87.0543463,49.9352398 86.9,49.96 L86.78,49.96 C86.64,49.96 86.42,49.82 86.46,49.74 L86.2,49.74 L79.63,62.09 C79.4154385,62.5385122 78.967057,62.8284141 78.47,62.84" id="Fill-54" fill="#00173B" fill-rule="nonzero"></path>
                                                        <path d="M89.65,44.13 L88.15,44.49 C88.4207249,44.9461921 88.4207249,45.5138079 88.15,45.97 L87.96,46.33 L89.63,45.93 L89.75,45.72 C90.0452121,45.2167707 89.997397,44.583221 89.63,44.13" id="Fill-56" fill="#041C43"></path>
                                                        <path d="M83.44,42.43 C83.4631557,42.3764202 83.5085625,42.3356297 83.564309,42.318329 C83.6200555,42.3010284 83.6805781,42.3089442 83.73,42.34 L86.15,43.75 C86.2517623,43.8178526 86.2862204,43.9513777 86.23,44.06 C86.2026845,44.1096238 86.1564803,44.146108 86.1018749,44.1611716 C86.0472696,44.1762351 85.9888946,44.1686003 85.94,44.14 L83.52,42.74 C83.4182377,42.6721474 83.3837796,42.5386223 83.44,42.43 Z M80.85,43.05 C80.9438863,42.7970965 81.1359698,42.5928535 81.3826421,42.4836398 C81.6293143,42.3744261 81.9096482,42.3695073 82.16,42.47 L86.69,45.16 C87.1304436,45.524808 87.2252882,46.1628535 86.91,46.64 L79.46,60.7 C79.2599933,61.2124931 78.6835854,61.467185 78.17,61.27 L73.65,58.67 C73.2057517,58.3178759 73.1018498,57.685806 73.41,57.21 L80.85,43.05 Z M88.15,44.49 C88.0811283,44.3926473 87.9925426,44.3108759 87.89,44.25 L82.52,40.89 C82.1773878,40.6996773 81.7551774,40.7270428 81.44,40.96 C81.2491059,41.1002006 81.0919449,41.2812774 80.98,41.49 L72.34,57.8 C71.9727802,58.3631499 72.1038157,59.1144205 72.64,59.52 L78.1,62.72 C78.1559915,62.7549005 78.2165744,62.7818263 78.28,62.8 L78.47,62.8 C78.967057,62.7884141 79.4154385,62.4985122 79.63,62.05 L86.2,49.68 L88,46.33 L88.19,45.97 C88.4485112,45.5065194 88.4331686,44.9388406 88.15,44.49 Z" id="Fill-58" fill="#0D2952" fill-rule="nonzero"></path>
                                                        <path d="M81.44,41 C81.7551774,40.7670428 82.1773878,40.7396773 82.52,40.93 L87.89,44.29 C87.9925426,44.3508759 88.0811283,44.4326473 88.15,44.53 L89.65,44.17 L89.49,44 L84.11,40.63 C83.2090305,40.4198293 82.2626868,40.5367931 81.44,40.96" id="Fill-60" fill="#00173B"></path>
                                                        <path d="M58.58,59.34 C58.7,59.75 63.31,56.49 63.67,56.14 C64.91,54.92 66.01,52.47 67.73,51.9 C67.9737776,51.8318699 68.227825,51.8081588 68.48,51.83 C69.3120871,51.8884901 70.1276182,52.0915269 70.89,52.43 C71.8615834,52.9701651 73.0033995,53.1169189 74.08,52.84 C75.3636813,52.4971788 76.5759758,51.9282808 77.66,51.16 C77.66,51.16 78.98,50.25 78.22,52.06 C77.46,53.87 73.06,55.06 73.06,55.06 C73.06,55.06 72.44,56.17 73.13,56.31 C73.82,56.45 75.2,55.66 75.77,55.16 C75.9532537,54.9587098 76.1942576,54.8189973 76.46,54.76 C77.46,54.65 76.87,56.28 76.64,56.68 C76.1396625,57.4975205 75.3681002,58.1133546 74.46,58.42 C73,58.94 71.56,59.53 70.1,60.05 C68.8034947,60.4328562 67.4472152,60.5718748 66.1,60.46 C64.24,60.39 63.28,61.76 62.1,62.99 C61.9,63.19 60.17,64.73 60.25,64.99 C59.69,63.11 59.14,61.23 58.58,59.35" id="Fill-62" fill="#E0AB94"></path>
                                                        <path d="M60.28,68.31 L63.28,79.11 C63.28,79.11 75.14,70.34 77.51,66 C78.9456521,63.3408541 79.7561883,60.389408 79.88,57.37 C79.88,57.37 79.6,54.87 81.69,56.95 C82.0186392,57.6497753 82.2055624,58.4076638 82.24,59.18 C82.24,60.3 85.86,53.75 85.72,51.94 C85.72,51.94 87.11,49.16 88.51,52.94 C89.0096019,54.7310037 89.0508669,56.6188768 88.63,58.43 C88.4430192,60.2039511 87.9913401,61.9398822 87.29,63.58 C86.4005339,65.3794134 85.0430287,66.906175 83.36,68 C82.1,68.7 78.21,75 78.21,75 C78.21,75 68.88,88 65.68,90.1 C65.68,90.1 62.75,92.89 60.25,91.5 C57.75,90.11 52,79.75 49.23,71.68 C53.1471914,71.6653565 56.9732128,70.4966809 60.23,68.32" id="Fill-64" fill="#E0AB94"></path>
                                                        <path d="M136.72,13.77 C136.72,13.77 137.62,35.29 143.72,35.29 C149.82,35.29 145.22,34.39 145.22,34.39 C145.22,34.39 144.01,40.45 145.22,41.66 C146.43,42.87 155.88,43.59 159.52,35.1 C159.52,35.1 153.71,34.39 154.92,14.99 C154.92,14.99 142.8,-4.41 136.74,13.77" id="Fill-66" fill="#AF7366"></path>
                                                        <path d="M158.61,6.82 C156.38,-1 144.88,1.69 140.55,5 C134.04,10 133.23,17.31 133.88,18.79 C136.58,24.89 140.98,16.67 145.8,14.08 C149.22,12.25 150.66,16.79 150.66,16.79 C151.211791,17.8478036 151.660525,18.9562439 152,20.1 C152.14,20.68 151.54,22.1 152.5,21.94 C154.5,21.56 153.42,18.94 153.72,17.41 C154.9,11.35 155,26.7 155,26.7 C161.06,24.28 159.74,10.76 158.61,6.82 Z" id="Path" fill="#19144A"></path>
                                                        <path d="M99,29.26 C98.5049178,31.3477171 98.5049178,33.5222829 99,35.61 C99.1018021,36.2571099 98.9276957,36.9172631 98.52,37.43 C97.5103192,38.8174643 96.2315662,39.9873873 94.76,40.87 C93.24,41.62 91.21,39.87 90.06,38.61 C88.42,36.85 90.44,34.14 91.99,33.11 C92.5129148,32.7067785 93.1499573,32.4792633 93.81,32.46 C95.74,32.53 96.29,31.95 96.81,30.02 C96.9441833,28.9894641 97.2842597,27.9964411 97.81,27.1 C97.9736099,26.8460937 98.2160062,26.6528793 98.5,26.55 C98.76846,26.4921536 99.0483107,26.5201386 99.3,26.63 C100.42,27.06 99.38,28.25 99.13,29.01 C99.0988116,29.0918182 99.0721053,29.1752752 99.05,29.26" id="Fill-70" fill="#AF7366"></path>
                                                        <path d="M135.74,51.9 C135.74,51.9 119.16,64.7 98.28,35.4 L94,40.82 C94,40.82 117.66,90 138.72,64.25 C138.72,64.25 147.67,47.5 135.72,51.9" id="Fill-72" fill="#AF7366"></path>
                                                        <path d="M144.57,40.19 C144.57,40.19 125.62,53.07 126.12,56.12 C126.62,59.17 134.77,68.48 134.77,68.48 C134.77,68.48 140.29,67.3 140.29,63.02 C140.29,58.74 144.57,40.19 144.57,40.19" id="Fill-82" fill="url(#linearGradient-4)"></path>
                                                        <path d="M136.82,76.77 C137.12,82.18 137.26,87.86 137.29,93.53 L183.73,93.53 C182.25,88.28 180.54,83.16 178.82,78.72 C177.82,76.14 171.82,75.49 174.54,75.86 C184.61,77.22 184.98,66.86 184.98,66.86 C181.23,42.46 169.26,36.4 162.9,34.91 C161.573582,34.5743978 160.20788,34.4196631 158.84,34.45 C150.84,44.73 144.57,40.16 144.57,40.16 C133.47,55.06 136,64.7 136,67.3 C136,69.9 136.82,76.77 136.82,76.77 Z" id="Path" fill="url(#linearGradient-5)"></path>
                                                        <path d="M175,93.53 C183.748009,84.2400783 186.52442,70.81818 182.18,58.82 C178.18,58.23 174.66,66.59 171.89,68.07 C170.89,68.62 168.82,74.3 168.25,75.32 C164.93,81.32 158.84,87.63 152.17,93.53 L175,93.53 Z" id="Path" fill="#AF7366"></path>
                                                        <path d="M170.21,38.19 C178.32,44.57 185.46,51.19 185.73,66.12 C185.73,68.53 184.84,71.12 184.21,73.43 C183.74,75.16 182.93,80.6 181.04,81.3 C180.253088,81.4682529 179.431572,81.3133178 178.76,80.87 C174.03,78.51 170.81,75.6 166.92,72.19 C166.92,72.19 172.73,55.19 166.55,51.52" id="Fill-80" fill="url(#linearGradient-6)"></path>
                                                    </g>
                                                </g>
                                            </g>
                                        </g>
                                    </g>
                                </g>
                            </g>
                        </g>
                    </g>
                </g>
            </g>
        </g>
    </g>
</svg>