<?xml version="1.0" encoding="utf-8"?>
<!-- Generator: Adobe Illustrator 25.0.0, SVG Export Plug-In . SVG Version: 6.00 Build 0)  -->
<svg version="1.1" id="Layer_1" xmlns="http://www.w3.org/2000/svg" xmlns:xlink="http://www.w3.org/1999/xlink" x="0px" y="0px"
	 viewBox="0 0 553 329.5" style="enable-background:new 0 0 553 329.5;" xml:space="preserve">
<style type="text/css">
	.st0{fill:#E8FFE3;}
	.st1{clip-path:url(#SVGID_2_);}
	.st2{clip-path:url(#SVGID_4_);}
	.st3{fill:#6E524A;}
	.st4{clip-path:url(#SVGID_6_);}
	.st5{fill:#8A6B60;}
	.st6{clip-path:url(#SVGID_8_);}
	.st7{clip-path:url(#SVGID_10_);}
	.st8{fill:#3E4360;}
	.st9{opacity:0.5;}
	.st10{clip-path:url(#SVGID_12_);}
	.st11{fill:#FFFFFF;}
	.st12{fill:#EEEEEE;}
	.st13{fill:#A3A3A3;}
	.st14{fill:#E0E0E0;}
	.st15{fill:#8B6C60;}
	.st16{fill-rule:evenodd;clip-rule:evenodd;fill:#FF9D1F;}
	.st17{fill-rule:evenodd;clip-rule:evenodd;fill:#FF7F19;}
	.st18{fill-rule:evenodd;clip-rule:evenodd;fill:#FFAE22;}
	.st19{fill-rule:evenodd;clip-rule:evenodd;fill:#FFC45E;}
	.st20{fill-rule:evenodd;clip-rule:evenodd;fill:#FFFFFF;}
	.st21{fill:#A30000;}
	.st22{fill:#FF9861;}
	.st23{fill:url(#_Path_3_1_);}
	.st24{fill:url(#_Path_4_1_);}
	.st25{fill:#ADB6D8;}
	.st26{fill:#040505;}
	.st27{fill:#394747;}
	.st28{fill:#8DA3B2;}
	.st29{fill:#6D7E93;}
	.st30{fill:#AEC1BF;}
	.st31{fill:#6A7289;}
	.st32{fill:#7E8AA3;}
	.st33{fill:#BCC8E8;}
	.st34{fill:url(#_Path_12_1_);}
	.st35{fill:#34474C;}
	.st36{fill:#4A596D;}
	.st37{fill:#849DA5;}
	.st38{fill:#31359B;}
	.st39{fill:#4F4CD8;}
	.st40{fill:#D4E2F4;}
	.st41{fill:#E19546;}
	.st42{fill:url(#_Path_21_1_);}
	.st43{clip-path:url(#SVGID_14_);}
	.st44{fill:#8590A8;}
	.st45{clip-path:url(#SVGID_16_);}
	.st46{fill:#9BA7BA;}
	.st47{fill:#48591B;}
	.st48{clip-path:url(#SVGID_18_);}
	.st49{fill:#4C9FD8;}
	.st50{clip-path:url(#SVGID_20_);}
	.st51{fill:#91B2F9;}
	.st52{fill:#31549B;}
	.st53{fill:#728093;}
	.st54{fill:#AABAD6;}
	.st55{fill:url(#_Path_40_1_);}
	.st56{fill:url(#_Path_41_1_);}
	.st57{fill:#5235D4;}
	.st58{clip-path:url(#SVGID_22_);}
	.st59{fill:#7D4ADE;}
	.st60{clip-path:url(#SVGID_24_);}
	.st61{fill:#B198ED;}
	.st62{clip-path:url(#SVGID_26_);}
	.st63{clip-path:url(#SVGID_28_);}
	.st64{fill:#6F738C;}
	.st65{fill:url(#_Path_61_1_);}
	.st66{fill:url(#_Path_62_1_);}
	.st67{fill:#B5BCBB;}
	.st68{fill:#254B63;}
	.st69{fill:#3C2415;}
	.st70{fill:url(#_Path_66_1_);}
	.st71{fill:url(#_Path_67_1_);}
	.st72{fill:url(#_Path_68_1_);}
	.st73{fill:url(#_Path_69_1_);}
	.st74{fill:url(#_Path_70_1_);}
	.st75{fill:url(#_Path_71_1_);}
	.st76{fill:#6A7D82;}
	.st77{fill:#99A9BF;}
	.st78{fill:#99A7C1;}
	.st79{clip-path:url(#SVGID_30_);}
	.st80{clip-path:url(#SVGID_32_);}
	.st81{fill:#818EA5;}
	.st82{fill:#536266;}
	.st83{clip-path:url(#SVGID_34_);}
	.st84{clip-path:url(#SVGID_36_);}
	.st85{fill:url(#_Path_89_1_);}
	.st86{fill:#8A96A8;}
	.st87{fill:url(#_Path_92_1_);}
	.st88{fill:url(#_Path_93_1_);}
	.st89{fill:url(#_Path_99_1_);}
	.st90{fill:url(#_Path_100_1_);}
	.st91{fill:#E54C17;}
	.st92{fill:#FF5708;}
	.st93{fill:#495959;}
	.st94{fill:url(#_Path_106_1_);}
	.st95{fill:url(#_Path_107_1_);}
	.st96{fill:#332924;}
	.st97{fill:#B69177;}
	.st98{fill:url(#_Path_110_1_);}
	.st99{fill:url(#_Path_111_1_);}
	.st100{fill:url(#_Path_112_1_);}
	.st101{fill:url(#_Path_113_1_);}
	.st102{fill:url(#_Path_114_1_);}
	.st103{fill:url(#_Path_115_1_);}
	.st104{fill:url(#_Path_116_1_);}
	.st105{fill:#FF5E08;}
	.st106{opacity:0.44;}
	.st107{fill:#656F7F;}
	.st108{fill:#A7A8A0;}
	.st109{fill:#BFC1B9;}
	.st110{fill:#BBBDBF;}
	.st111{fill:#FFED48;}
	.st112{fill:#FCEBA4;}
	.st113{fill:#E5C025;}
	.st114{fill:#616770;}
	.st115{fill:#6F757F;}
	.st116{fill:#D3E5F0;}
	.st117{fill:#5D626B;}
	.st118{fill:#798089;}
	.st119{fill:#ED4634;}
	.st120{fill:#929497;}
</style>
<g>
	<g id="Layer_2_1_">
		<g id="Layer_1-2">
			<path class="st0" d="M418.7,183.1c0,20.5,19.1,46.8,9.1,64.6s-42,19.8-59.9,33.3s-34.2,30.7-58,38.2s-49.6,10.2-77,10.2
				s-52.9-3.8-76.6-11.3s-50.4-10.2-68.3-23.7s-39-29.3-49-47.1s1.3-43.7,1.3-64.2s5.2-37.1,15.2-54.9S76.8,94.4,94.8,81
				s39.5-19.8,63.2-27.3s47.4-32,74.9-32s55.8,9.7,79.6,17.2s47.6,19.4,65.5,32.8s29.6,34.7,39.7,52.5S418.7,162.6,418.7,183.1z"/>
			<g>
				<defs>
					<path id="SVGID_1_" d="M418.7,183.1c0,20.5,19.1,46.8,9.1,64.6s-42,19.8-59.9,33.3s-34.2,30.7-58,38.2s-49.6,10.2-77,10.2
						s-52.9-3.8-76.6-11.3s-50.4-10.2-68.3-23.7s-39-29.3-49-47.1s1.3-43.7,1.3-64.2s5.2-37.1,15.2-54.9S76.8,94.4,94.8,81
						s39.5-19.8,63.2-27.3s47.4-32,74.9-32s55.8,9.7,79.6,17.2s47.6,19.4,65.5,32.8s29.6,34.7,39.7,52.5S418.7,162.6,418.7,183.1z"
						/>
				</defs>
				<clipPath id="SVGID_2_">
					<use xlink:href="#SVGID_1_"  style="overflow:visible;"/>
				</clipPath>
				<g class="st1">
					<g>
						<g>
							<defs>
								<polygon id="SVGID_3_" points="225.1,137 460.9,0 553,53.2 317.2,190.2 								"/>
							</defs>
							<clipPath id="SVGID_4_">
								<use xlink:href="#SVGID_3_"  style="overflow:visible;"/>
							</clipPath>
							<g class="st2">
								<polyline class="st3" points="553,53.2 460.9,0 225.1,137 317.2,190.2 553,53.2 								"/>
							</g>
						</g>
					</g>
					<g>
						<g>
							<defs>
								<polygon id="SVGID_5_" points="206.8,147.8 442.6,10.7 455.8,18.3 220,155.4 								"/>
							</defs>
							<clipPath id="SVGID_6_">
								<use xlink:href="#SVGID_5_"  style="overflow:visible;"/>
							</clipPath>
							<g class="st4">
								<polyline class="st5" points="455.8,18.3 442.6,10.7 206.8,147.8 220,155.4 455.8,18.3 								"/>
							</g>
						</g>
					</g>
					<g>
						<g>
							<defs>
								<polygon id="SVGID_7_" points="293,189.1 528.8,52.1 542,59.7 306.2,196.8 								"/>
							</defs>
							<clipPath id="SVGID_8_">
								<use xlink:href="#SVGID_7_"  style="overflow:visible;"/>
							</clipPath>
							<g class="st6">
								<polyline class="st5" points="542,59.7 528.8,52.1 293,189.1 306.2,196.8 542,59.7 								"/>
							</g>
						</g>
					</g>
					<g>
						<g>
							<defs>
								<polygon id="SVGID_9_" points="0,268 264.1,114.6 356.2,167.8 92.2,321.2 								"/>
							</defs>
							<clipPath id="SVGID_10_">
								<use xlink:href="#SVGID_9_"  style="overflow:visible;"/>
							</clipPath>
							<g class="st7">
								<path class="st8" d="M302.9,137c-5.8-3.4-14.5-4.6-24.2-5.3c-15.6-1-23.2-3.7-26.7-5.8c-2.5-1.4-3-2.5-3-2.5L0,268
									l92.2,53.2l248.9-144.7c0,0,1.1-6.6-7.2-11.4c-1.5-0.8-3.1-1.6-4.7-2.1c-4.3-1.4-8.4-3.2-12.4-5.3c-3.7-2.1-6.4-4.6-6.3-7.6
									C310.7,144.8,307.8,139.6,302.9,137"/>
							</g>
						</g>
					</g>
					<g class="st9">
						<g>
							<g>
								<defs>
									<polygon id="SVGID_11_" points="41.4,294 290.1,149.4 293.4,151.3 44.7,295.8 									"/>
								</defs>
								<clipPath id="SVGID_12_">
									<use xlink:href="#SVGID_11_"  style="overflow:visible;"/>
								</clipPath>
								<g class="st10">
									<polyline class="st11" points="293.4,151.3 290.1,149.4 273.8,158.9 277.1,160.8 293.4,151.3 									"/>
									<path class="st11" d="M111.4,257l-3.3-1.9l-36,20.9l3.3,1.9L111.4,257 M161.8,227.7l-3.3-1.9l-36,20.9l3.3,1.9L161.8,227.7
										 M212.2,198.4l-3.3-1.9l-36,20.9l3.3,1.9L212.2,198.4 M262.7,169.2l-3.3-1.9l-36,20.9l3.3,1.9L262.7,169.2"/>
									<polyline class="st11" points="61,286.3 57.7,284.4 41.4,294 44.7,295.8 61,286.3 									"/>
								</g>
							</g>
						</g>
					</g>
					<polygon class="st12" points="396.3,109.8 402.5,106.5 411.6,108.5 401.4,110.6 					"/>
					<polygon class="st13" points="402.1,116.1 408.6,112.7 411.6,108.5 401.4,110.6 					"/>
					<polygon class="st14" points="396,114.6 396.3,109.8 401.4,110.6 402.1,116.1 					"/>
					<polygon class="st12" points="314,121.8 320.1,118.6 329.1,120.5 319.1,122.6 					"/>
					<polygon class="st13" points="319.8,128.1 326.2,124.6 329.1,120.5 319.1,122.6 					"/>
					<polygon class="st14" points="313.7,126.6 314,121.8 319.1,122.6 319.8,128.1 					"/>
					<polygon class="st12" points="357.4,89.9 360.2,88.4 364.3,89.3 359.7,90.2 					"/>
					<polygon class="st13" points="360,92.8 363,91.2 364.3,89.3 359.7,90.2 					"/>
					<polygon class="st14" points="357.2,92.1 357.4,89.9 359.7,90.2 360,92.8 					"/>
					<ellipse class="st15" cx="329.1" cy="151.5" rx="3.5" ry="1.4"/>
					<ellipse class="st15" cx="345.2" cy="140.5" rx="1.1" ry="0.4"/>
					<ellipse class="st15" cx="421.3" cy="102.6" rx="1.1" ry="0.4"/>
					<ellipse class="st15" cx="329.4" cy="137.8" rx="1.8" ry="0.7"/>
					<ellipse class="st15" cx="312.7" cy="111.4" rx="1.8" ry="0.7"/>
					<ellipse class="st15" cx="355.7" cy="123.4" rx="3.5" ry="1.4"/>
					<ellipse class="st15" cx="345.2" cy="94.7" rx="2.6" ry="1"/>
					<ellipse class="st15" cx="359" cy="104" rx="1.6" ry="0.6"/>
					<ellipse class="st15" cx="376.7" cy="103.1" rx="3.5" ry="1.4"/>
					<ellipse class="st15" cx="394.2" cy="96.3" rx="1.6" ry="0.6"/>
					<ellipse class="st15" cx="389.7" cy="124.4" rx="1.2" ry="0.5"/>
					<ellipse class="st15" cx="313.3" cy="138.1" rx="1.2" ry="0.5"/>
					<ellipse class="st15" cx="424.8" cy="92.4" rx="3.5" ry="1.4"/>
					<ellipse class="st15" cx="299.6" cy="122.4" rx="3.5" ry="1.4"/>
					<ellipse class="st15" cx="337.9" cy="113.3" rx="2.3" ry="0.9"/>
					<ellipse class="st15" cx="376.4" cy="81.2" rx="2.3" ry="0.9"/>
					<ellipse class="st15" cx="371.4" cy="131.3" rx="2.3" ry="0.9"/>
					<polygon class="st16" points="249.2,193.6 237.1,200.9 249.2,208.3 261.2,200.9 					"/>
					<polygon class="st17" points="243.8,200.9 247,188 249.4,188.7 249.4,203.2 					"/>
					<polygon class="st18" points="254.9,200.9 251.7,188 249.4,188.7 249.4,203.2 					"/>
					<polygon class="st19" points="247,188 249.4,187.3 251.7,188 249.4,188.7 249.4,188.7 249.4,188.7 					"/>
					<polygon class="st20" points="244.4,198.5 249.4,200.2 249.4,198.8 244.7,197.2 					"/>
					<polygon class="st20" points="254.3,198.5 249.4,200.2 249.4,198.8 254,197.2 					"/>
					<polygon class="st20" points="245.3,194.8 249.3,195.9 249.3,194.7 245.6,193.6 					"/>
					<polygon class="st20" points="246.2,191.1 249.4,192 249.4,190.9 246.5,190.1 					"/>
					<polygon class="st20" points="253.4,194.8 249.4,195.9 249.4,194.7 253.1,193.6 					"/>
					<polygon class="st20" points="252.5,191.1 249.4,192 249.4,190.9 252.3,190.1 					"/>
					<polygon class="st16" points="206.5,167.5 194.4,174.9 206.5,182.2 218.6,174.9 					"/>
					<polygon class="st17" points="201.1,174.8 204.4,161.9 206.7,162.6 206.7,177.1 					"/>
					<polygon class="st18" points="212.3,174.8 209,161.9 206.7,162.6 206.7,177.1 					"/>
					<polygon class="st19" points="204.4,161.9 206.7,161.2 209,161.9 206.7,162.6 206.7,162.6 206.7,162.6 					"/>
					<polygon class="st20" points="201.7,172.4 206.7,174.1 206.7,172.7 202.1,171.1 					"/>
					<polygon class="st20" points="211.7,172.4 206.7,174.1 206.7,172.7 211.3,171.1 					"/>
					<polygon class="st20" points="202.7,168.7 206.7,169.8 206.7,168.6 202.9,167.6 					"/>
					<polygon class="st20" points="203.6,165.1 206.7,166 206.7,164.9 203.9,164 					"/>
					<polygon class="st20" points="210.8,168.7 206.8,169.8 206.8,168.6 210.5,167.6 					"/>
					<polygon class="st20" points="209.8,165.1 206.7,166 206.7,164.9 209.6,164 					"/>
					<g id="_Group_">
						<path id="_Path_" class="st21" d="M150.3,111.2c0,0,12.8,1.3,13.2,0.2c0.4-1.3,4.6,3.7-1.1,3.2S146.7,111.5,150.3,111.2z"/>
						<path id="_Path_2" class="st22" d="M150.9,111.1c0,0,12.3,1.1,12.7,0c0.4-1.3,4.6,3.7-1.1,3.2S145.6,111.1,150.9,111.1z"/>
						
							<linearGradient id="_Path_3_1_" gradientUnits="userSpaceOnUse" x1="127.48" y1="187.4524" x2="146.86" y2="187.4524" gradientTransform="matrix(1 0 0 -1 0 330)">
							<stop  offset="0" style="stop-color:#B89883"/>
							<stop  offset="0.5" style="stop-color:#B58F73"/>
							<stop  offset="1" style="stop-color:#8F6D56"/>
						</linearGradient>
						<path id="_Path_3" class="st23" d="M144.2,135.6l-9.3,12.2c0,0,2.5-1,3.3-1.4c2.4-1.1,5-2.1,7.5-2.9c0,0,1.9,6,0.8,6.1
							s-17.4,11.4-19,4.2c-0.5-2.5,5.7-17.8,9-21.8c1.6-2,4.9-3.8,7.1-2.5S146,132.5,144.2,135.6z"/>
						
							<linearGradient id="_Path_4_1_" gradientUnits="userSpaceOnUse" x1="122.9822" y1="193.299" x2="135.1422" y2="192.619" gradientTransform="matrix(1 0 0 -1 0 330)">
							<stop  offset="0" style="stop-color:#F2A23E"/>
							<stop  offset="0.58" style="stop-color:#FFBD58"/>
							<stop  offset="1" style="stop-color:#FFCD64"/>
						</linearGradient>
						<path id="_Path_4" class="st24" d="M143.2,148.7c-2.5,0.4-5,0.4-7.5,0c-5.8-1.3-7.6-4.5-7.6-4.5s4.8-12,7-14.7
							c3-3.8,6.8-3.7,8.3-2.8s3.4,3,1.9,9.4C144.3,140.3,143.6,144.5,143.2,148.7z"/>
						<g id="_Group_2">
							<path id="_Path_5" class="st25" d="M178,143.9c0,0,8.6-0.5,11.4,5.9s8.2,17.2,5.9,25.3s-23.5-21-23.5-21L178,143.9z"/>
						</g>
						<g id="_Group_3">
							<g id="_Group_4">
								<g id="_Group_5">
									<g id="_Group_6">
										<path id="_Compound_Path_" class="st26" d="M197.3,180.1c7.4-4.3,13.4-0.8,13.4,7.7s-6,18.9-13.4,23.1
											c-2.2,1.4-4.8,2-7.4,1.7c-3.6-0.7-6-4-6-9.4C183.9,194.8,189.9,184.4,197.3,180.1z"/>
									</g>
								</g>
							</g>
						</g>
						<g id="_Group_7">
							<g id="_Group_8">
								<g id="_Group_9">
									<g id="_Group_10">
										<g id="_Group_11">
											<path id="_Path_6" class="st26" d="M185.5,208.7c0,0-0.5,0.8,1.4,2.4c3.3,2.7,7.9,6,13.1,4.4c2.7-0.8,15.4-31,15.4-31
												s-1.9-4.8-9.8-5.5s-14.5,8.2-14.5,8.2L185.5,208.7z"/>
										</g>
									</g>
								</g>
								<g id="_Group_12">
									<g id="_Group_13">
										<g id="_Group_14">
											<g id="_Group_15">
												<path id="_Compound_Path_2" class="st27" d="M203.8,183.2c7.4-4.3,13.4-0.8,13.4,7.7s-6,18.9-13.4,23.1
													c-2.2,1.4-4.8,2-7.4,1.7c-3.6-0.7-6-4-6-9.4C190.4,197.9,196.4,187.5,203.8,183.2z"/>
											</g>
										</g>
									</g>
								</g>
								<g id="_Group_16">
									<g id="_Group_17">
										<g id="_Group_18">
											<g id="_Group_19">
												<g id="_Group_20">
													<g id="_Group_21">
														<g id="_Group_22">
															<path id="_Compound_Path_3" class="st28" d="M200.7,209.8c-3.3,0-5.4-2.6-5.4-6.7c0-5.5,3.9-12.3,8.7-15.1
																c1.2-0.8,2.7-1.2,4.1-1.2c3.3,0,5.4,2.6,5.4,6.7c0,5.5-3.9,12.3-8.7,15.1C203.6,209.3,202.2,209.7,200.7,209.8z"/>
														</g>
													</g>
												</g>
											</g>
										</g>
									</g>
									<g id="_Group_23">
										<g id="_Group_24">
											<g id="_Group_25">
												<g id="_Group_26">
													<path id="_Path_7" class="st29" d="M197.9,208.2c0.8,0.7,1.8,1,2.8,1c1.4,0,2.7-0.5,3.8-1.2c4.7-2.7,8.4-9.2,8.4-14.6
														c0-2.5-0.9-4.4-2.3-5.4h-0.1C210.6,188.1,211.3,200.9,197.9,208.2z"/>
												</g>
											</g>
										</g>
									</g>
									<g id="_Group_27">
										<g id="_Group_28">
											<g id="_Group_29">
												<g id="_Group_30">
													<g id="_Group_31">
														<path id="_Compound_Path_4" class="st30" d="M202.3,205.2c-1.9,0-3.1-1.5-3.1-3.9c0.2-3.7,2.1-7,5.2-9.1
															c0.7-0.5,1.6-0.7,2.4-0.7c1.9,0,3.1,1.5,3.1,3.9c-0.2,3.7-2.1,7-5.2,9C204,204.9,203.2,205.2,202.3,205.2z"/>
													</g>
												</g>
											</g>
										</g>
									</g>
								</g>
							</g>
							<g id="_Group_32">
								<g id="_Group_33">
									<g id="_Group_34">
										<path id="_Path_8" class="st31" d="M191.7,188.8l11.8,9c1.1,0.9,2.6,2.4,3.4,1.3s-3.2-4.1-4.3-5.1l-9.9-8.6
											C192.3,186.6,191.9,187.7,191.7,188.8z"/>
									</g>
								</g>
								<g id="_Group_35">
									<g id="_Group_36">
										<path id="_Path_9" class="st32" d="M192.1,188.7l11.8,9c1.1,0.9,2.6,2.4,3.4,1.3s-3.2-4.1-4.3-5.1l-9.9-8.6
											C192.7,186.5,192.3,187.6,192.1,188.7z"/>
									</g>
								</g>
							</g>
						</g>
						<g id="_Group_37">
							<g id="_Group_38">
								<path id="_Path_10" class="st25" d="M193.3,169.9c0,0,7.3-4.2,14.2-1.9c2.7,0.9,4.6,3.2,5.2,5.9c0,0,1,1.7-5.1,7.6
									l-10.4,9.6L193.3,169.9z"/>
							</g>
							<g id="_Group_39">
								<path id="_Path_11" class="st33" d="M196.8,175c0,0,7.1-4.6,12.6-0.9c0.4,0.3,0.4,0.8,0.1,1.2c-0.1,0.2-0.3,0.3-0.5,0.3
									c-2.8,0.7-8.2,2.4-10.6,6.7S196.8,175,196.8,175z"/>
							</g>
						</g>
						<g id="_Group_40">
							<g id="_Group_41">
								
									<linearGradient id="_Path_12_1_" gradientUnits="userSpaceOnUse" x1="149.0834" y1="141.0561" x2="199.0229" y2="141.0561" gradientTransform="matrix(1 0 0 -1 0 330)">
									<stop  offset="0" style="stop-color:#3929CE"/>
									<stop  offset="1" style="stop-color:#E77DF8"/>
								</linearGradient>
								<path id="_Path_12" class="st34" d="M164,198.3c0,0,9.4-21.9,1.6-41.3c0,0-2.8-6.1,0.7-7.9c0,0,10.1-2.2,13.1-1
									s15.8,12.5,19,30.1c0,0,4.6,22.3-10.2,37.6c0,0-4.1,9.7-11.2,12.3c0,0-10,3.8-26.3,1.3c-1-0.2-1.6-1-1.6-2l2.2-25.1
									C155.2,200.2,159.6,198.8,164,198.3z"/>
							</g>
							<g id="_Group_42">
								<g id="_Group_43">
									<path id="_Path_13" class="st35" d="M191,207.8c-3.1,0.6-6.3,0.4-9.2-0.7c0,0-10.7,2.1-9.6-4.2c0,0-3.8-2.1-0.8-5.2
										c0,0-13.2,0.2-20.1,4.6l-1.9,25.4c0.8-2,2.4-3.6,4.4-4.4c1.1-0.4,2.2-0.6,3.4-0.5c7.6-0.1,15.2-1.4,22.3-4.1
										C179.5,218.6,189,215.6,191,207.8z"/>
								</g>
								<g id="_Group_44">
									<path id="_Path_14" class="st36" d="M153.8,223.2c-2,0.9-3.5,2.5-4.4,4.4l1.7-23.1c5.9-3.7,19-4.9,19.1-4.7
										c-0.1,0.4-0.1,1.3-0.1,1.5c-1,2.3,1.7,3.8,1.7,3.8c-1.1,6.4,9.7,4.2,9.7,4.2c2.7,1.1,5.7,1.4,8.6,0.9
										c-3.1,5.9-10.5,8.2-10.5,8.2c-7.2,2.6-14.7,4-22.3,4.1C156,222.6,154.8,222.8,153.8,223.2z"/>
								</g>
								<g id="_Group_45">
									<path id="_Path_15" class="st37" d="M149.4,227.7c0.8-2,2.4-3.6,4.4-4.4c1.1-0.4,2.2-0.6,3.4-0.5
										c7.6-0.1,15.2-1.4,22.3-4.1c0,0,9.5-3,11.5-10.9l0,0c0.1,1.7-0.3,3.3-1.1,4.8c-2.8,4.4-6.9,7.7-11.8,9.4
										c0,0-3.6,2.5-28.5,5.9C149.2,227.9,149.4,227.7,149.4,227.7z"/>
								</g>
							</g>
							<g id="_Group_46">
								<path id="_Path_16" class="st38" d="M172.1,202.8c0,0,8.4-31.6-4.9-53.4C167.2,149.3,177.8,163.9,172.1,202.8z"/>
							</g>
							<g id="_Group_47">
								<path id="_Path_17" class="st39" d="M181.8,207c0,0,2.2-27.1,9.5-28.4c0,0,7.6-0.2-0.2,29.1C191,207.8,186,209,181.8,207z"
									/>
							</g>
							<g id="_Group_48">
								<path id="_Path_18" class="st38" d="M184.4,155.6l2-1l0.5,0.1c5.8,6.7,9.8,14.8,11.5,23.5c0,0,4.6,22.3-10.2,37.6
									C211,181.9,184.4,155.6,184.4,155.6z"/>
							</g>
						</g>
						<g id="_Group_49">
							<path id="_Path_19" class="st40" d="M187.5,153.7c1.2,2.5,3.6,3.8,5.3,3s2-3.5,0.8-6s-3.6-3.8-5.3-3S186.3,151.2,187.5,153.7
								z"/>
						</g>
						<g id="_Group_50">
							<g id="_Group_51">
								<g id="_Group_52">
									<path id="_Path_20" class="st41" d="M164.6,143.1c1.2,2.3,5,0.9,6.6,0.1c0.5-0.2,0.8-0.6,0.8-1.1c0.2-1.9-0.7-3.8-2.4-4.7
										c-0.5-0.2-1-0.2-1.4,0.1C166.7,138.4,163.4,140.8,164.6,143.1z"/>
								</g>
								<g id="_Group_53">
									
										<linearGradient id="_Path_21_1_" gradientUnits="userSpaceOnUse" x1="163.9541" y1="185.3749" x2="173.3341" y2="192.8149" gradientTransform="matrix(1 0 0 -1 0 330)">
										<stop  offset="0" style="stop-color:#3929CE"/>
										<stop  offset="1" style="stop-color:#E77DF8"/>
									</linearGradient>
									<path id="_Path_21" class="st42" d="M163.3,143.8c1.3,2.5,5.4,0.9,7.2,0.1c0.5-0.2,0.8-0.7,0.9-1.2
										c0.3-2.1-0.8-4.1-2.7-5.1c-0.5-0.2-1.1-0.2-1.6,0.1C165.5,138.6,162,141.2,163.3,143.8z"/>
								</g>
							</g>
							<g id="_Group_54">
								<path id="_Path_22" class="st25" d="M160.2,142.8c-0.6,1.1-1.8,1.6-3,1.2c-1.6-0.5-5.9-2-8.1-0.6c0,0-0.7,1-1.5,0.6
									c0,0-1.4-1.2,1.8-1.7c1.8-0.2,3.6-0.2,5.4,0c0.5,0,1-0.2,1.4-0.5c0.8-0.6,0.5-1,1.2-1.3S160.9,141.8,160.2,142.8z"/>
							</g>
							<g id="_Group_55">
								<g id="_Group_56">
									<g id="_Clip_Group_">
										<g>
											<defs>
												<path id="SVGID_13_" d="M158.7,140l-7.5-1.5c-0.3,0-0.5,0.1-0.6,0.3l7.5,1.5C158.2,140.1,158.5,140,158.7,140z"/>
											</defs>
											<clipPath id="SVGID_14_">
												<use xlink:href="#SVGID_13_"  style="overflow:visible;"/>
											</clipPath>
											<g class="st43">
												<g id="_Group_57">
													<g id="_Group_58">
														<path id="_Path_23" class="st44" d="M158.7,140l-7.5-1.5c-0.3,0-0.5,0.1-0.6,0.3l7.5,1.5
															C158.2,140.1,158.5,140,158.7,140L158.7,140z"/>
													</g>
												</g>
											</g>
										</g>
									</g>
									<g id="_Clip_Group_2">
										<g>
											<defs>
												<path id="SVGID_15_" d="M150.7,141.3l7.5,1.5c-0.2-0.1-0.4-0.3-0.5-0.5c-0.2-0.7,0-1.4,0.4-1.9l-7.5-1.5
													c-0.4,0.5-0.6,1.3-0.4,1.9C150.2,141,150.4,141.2,150.7,141.3z"/>
											</defs>
											<clipPath id="SVGID_16_">
												<use xlink:href="#SVGID_15_"  style="overflow:visible;"/>
											</clipPath>
											<g class="st45">
												<g id="_Group_59">
													<g id="_Group_60">
														<path id="_Path_24" class="st44" d="M158.1,140.3l-7.5-1.5c-0.1,0.1-0.2,0.3-0.3,0.5l7.5,1.5
															C157.8,140.6,157.9,140.5,158.1,140.3L158.1,140.3z"/>
													</g>
													<g id="_Group_61">
														<path id="_Path_25" class="st46" d="M157.8,140.8l-7.5-1.5c-0.1,0.2-0.1,0.5-0.2,0.7l7.5,1.5
															C157.6,141.3,157.7,141,157.8,140.8z"/>
													</g>
													<g id="_Group_62">
														<path id="_Path_26" class="st44" d="M157.6,141.5l-7.5-1.5c0,0.3,0,0.5,0.1,0.8c0.1,0.2,0.2,0.4,0.5,0.5l7.5,1.5
															c-0.2-0.1-0.4-0.3-0.5-0.5C157.6,142,157.6,141.7,157.6,141.5L157.6,141.5z"/>
													</g>
												</g>
											</g>
										</g>
									</g>
									<g id="_Group_63">
										<g id="_Group_64">
											<path id="_Path_27" class="st47" d="M158.1,140.3c-0.4,0.5-0.6,1.3-0.4,1.9c0,0.3,0.3,0.6,0.7,0.5c0.2,0,0.4-0.1,0.4-0.3
												c0.4-0.5,0.6-1.3,0.4-1.9C159,140,158.5,139.9,158.1,140.3z"/>
										</g>
									</g>
								</g>
							</g>
							<g id="_Group_65">
								<g id="_Group_66">
									<g id="_Clip_Group_3">
										<g>
											<defs>
												<path id="SVGID_17_" d="M160.1,139.6l-2.4-0.4c-0.4,0-0.7,0.1-0.9,0.4l2.4,0.4C159.4,139.7,159.8,139.6,160.1,139.6z"/>
											</defs>
											<clipPath id="SVGID_18_">
												<use xlink:href="#SVGID_17_"  style="overflow:visible;"/>
											</clipPath>
											<g class="st48">
												<g id="_Group_67">
													<g id="_Group_68">
														<path id="_Path_28" class="st49" d="M160.1,139.6l-2.4-0.4c-0.4,0-0.7,0.1-0.9,0.4l2.4,0.4
															C159.4,139.7,159.8,139.6,160.1,139.6L160.1,139.6z"/>
													</g>
												</g>
											</g>
										</g>
									</g>
									<g id="_Clip_Group_4">
										<g>
											<defs>
												<path id="SVGID_19_" d="M157,143.1l2.4,0.4c-0.3-0.1-0.6-0.4-0.7-0.7c-0.3-1-0.1-2,0.5-2.8l-2.4-0.4
													c-0.6,0.8-0.8,1.8-0.5,2.8C156.4,142.7,156.7,143,157,143.1z"/>
											</defs>
											<clipPath id="SVGID_20_">
												<use xlink:href="#SVGID_19_"  style="overflow:visible;"/>
											</clipPath>
											<g class="st50">
												<g id="_Group_69">
													<g id="_Group_70">
														<path id="_Path_29" class="st49" d="M159.2,140l-2.4-0.4c-0.2,0.2-0.3,0.4-0.4,0.7l2.4,0.4
															C158.9,140.4,159.1,140.2,159.2,140L159.2,140z"/>
													</g>
													<g id="_Group_71">
														<path id="_Path_30" class="st51" d="M158.8,140.7l-2.4-0.4c-0.1,0.3-0.2,0.7-0.2,1l2.4,0.4
															C158.6,141.4,158.7,141,158.8,140.7z"/>
													</g>
													<g id="_Group_72">
														<path id="_Path_31" class="st49" d="M158.6,141.7l-2.4-0.4c0,0.4,0,0.7,0.1,1.1c0.1,0.3,0.3,0.6,0.7,0.7l2.4,0.4
															c-0.3-0.1-0.6-0.4-0.7-0.7C158.6,142.5,158.5,142.1,158.6,141.7L158.6,141.7z"/>
													</g>
												</g>
											</g>
										</g>
									</g>
									<g id="_Group_73">
										<g id="_Group_74">
											<path id="_Path_32" class="st52" d="M159.2,140c-0.6,0.8-0.8,1.8-0.5,2.8c0.3,0.9,1,1,1.6,0.3c0.6-0.8,0.8-1.8,0.5-2.8
												c-0.1-0.5-0.5-0.8-1-0.7C159.6,139.6,159.4,139.8,159.2,140z"/>
										</g>
									</g>
								</g>
							</g>
							<g id="_Group_75">
								<g id="_Group_76">
									<path id="_Path_33" class="st32" d="M165.8,152.6c-0.8-0.6-1.5-1.4-1.8-2.4c-0.2-0.8-0.4-1.7-0.4-2.6
										c-0.1-2.1-0.2-3.8-3.6-4.8c-0.6-0.2-0.9-0.7-0.8-1.3c0.1-0.5,0.6-0.9,1.2-0.8c0.1,0,0.1,0,0.2,0c5,1.5,5.2,4.5,5.3,6.8
										c0,0.7,0.1,1.3,0.3,2c0.5,1.7,3.9,2.7,5,3.1c0.6,0.1,1,0.7,0.9,1.4c-0.1,0.5-0.6,0.9-1.1,0.9c0,0,0,0-0.1,0
										C169.1,154.3,167.4,153.5,165.8,152.6z"/>
								</g>
							</g>
							<g id="_Group_77">
								<path id="_Path_34" class="st53" d="M159.2,141.5c0-0.1,0-0.1,0.1-0.2c0.1,0,0.3,0,0.4,0c5,1.5,5.1,4.5,5.2,6.8
									c0,0.7,0.1,1.3,0.3,2c0.5,1.7,3.9,2.7,5,3.1c0.6,0.2,1,0.7,0.9,1.3c0,0.1,0,0.2-0.1,0.3c-0.1,0-0.2,0-0.3,0
									c-1.7-0.5-3.4-1.3-5-2.2c-0.8-0.6-1.5-1.4-1.8-2.4c-0.2-0.8-0.4-1.7-0.4-2.6c-0.1-2.1-0.2-3.8-3.6-4.8
									C159.5,142.7,159.1,142.1,159.2,141.5z"/>
							</g>
							<g id="_Group_78">
								<path id="_Path_35" class="st32" d="M157.9,124.5c0.2,0,0.3,0,0.4,0.2l5.4,17.6c0.1,0.2,0,0.4-0.2,0.6
									c-0.1,0.1-0.2,0.1-0.3,0c0,0,0-0.1-0.1-0.1l-5.4-17.9C157.6,124.7,157.7,124.6,157.9,124.5
									C157.9,124.5,157.9,124.5,157.9,124.5z"/>
							</g>
							<g id="_Group_79">
								<g id="_Group_80">
									<path id="_Path_36" class="st54" d="M153.5,126.9c1.2,2.5,3.6,3.8,5.3,3s2-3.5,0.8-6s-3.6-3.8-5.3-3
										S152.2,124.4,153.5,126.9z"/>
								</g>
								<g id="_Group_81">
									<path id="_Path_37" class="st38" d="M159,124.3c-1.2-2.4-3.5-3.8-5.2-3c0.2-0.1,0.3-0.3,0.5-0.3c1.7-0.8,4,0.5,5.3,3
										s0.9,5.2-0.8,6h-0.1C159.9,128.8,160,126.5,159,124.3z"/>
								</g>
							</g>
						</g>
						<g id="_Group_82">
							<path id="_Path_38" class="st33" d="M173.6,139.3c0.4-0.2,0.8-0.3,1.2-0.2c1.4,0,6,0.8,6.1,5.4v3.4c0,0.3-0.2,0.5-0.5,0.5
								H178c-0.3,0-0.5-0.2-0.5-0.5c0,0,0,0,0,0v-6.1c0-0.2-0.1-0.3-0.2-0.4C176.3,140.3,175,139.7,173.6,139.3z"/>
						</g>
						<g id="_Group_83">
							<g id="_Group_84">
								<path id="_Path_39" class="st41" d="M187.8,158.3c1.2,2.3,5,0.9,6.6,0.1c0.5-0.2,0.8-0.6,0.8-1.1c0.2-1.9-0.7-3.8-2.4-4.7
									c-0.5-0.2-1-0.2-1.4,0.1C189.8,153.6,186.6,155.9,187.8,158.3z"/>
							</g>
							<g id="_Group_85">
								
									<linearGradient id="_Path_40_1_" gradientUnits="userSpaceOnUse" x1="186.2296" y1="171.0807" x2="198.2097" y2="177.2307" gradientTransform="matrix(1 0 0 -1 0 330)">
									<stop  offset="0" style="stop-color:#3929CE"/>
									<stop  offset="1" style="stop-color:#E77DF8"/>
								</linearGradient>
								<path id="_Path_40" class="st55" d="M186.5,158.9c1.3,2.5,5.4,0.9,7.2,0.1c0.5-0.2,0.8-0.7,0.9-1.2c0.3-2.1-0.8-4.1-2.7-5.1
									c-0.5-0.2-1.1-0.2-1.6,0.1C188.7,153.8,185.1,156.4,186.5,158.9z"/>
							</g>
						</g>
						<g id="_Group_86">
							<g id="_Group_87">
								
									<linearGradient id="_Path_41_1_" gradientUnits="userSpaceOnUse" x1="179.1368" y1="170.2485" x2="165.2268" y2="200.0085" gradientTransform="matrix(1 0 0 -1 0 330)">
									<stop  offset="0" style="stop-color:#3929CE"/>
									<stop  offset="1" style="stop-color:#E77DF8"/>
								</linearGradient>
								<path id="_Path_41" class="st56" d="M166.4,147.7c2.2,2.4,3.9,5.2,5.2,8.2c0.3,1.1,1.1,1.9,2.2,2.1c1.9,0.1,3.9-0.4,5.5-1.4
									c4.9-2.9-1.5-14.4-1.5-14.4L166.4,147.7z"/>
							</g>
							<g id="_Group_88">
								<path id="_Path_42" class="st57" d="M177.8,152.4c0.2-0.1,0.5-0.1,0.6,0.1c0.1,0.1,0.1,0.2,0.1,0.2v1.8c0,0.5-0.3,1-0.8,1.3
									l-3.5,1.7c-0.3,0.1-0.6,0-0.8-0.3c0-0.1-0.1-0.1-0.1-0.2c-0.1-0.5,0.1-1.1,0.6-1.4L177.8,152.4z"/>
							</g>
							<g id="_Group_89">
								<path id="_Path_43" class="st38" d="M171.6,140.3c0.8-0.9,2.2-1.2,3.3-0.5l2.1,1.2c0.8,0.5,1.1,1.6,0.6,2.4
									c-0.1,0.1-0.1,0.2-0.2,0.3l-4.9,5.4c-0.8,0.9-2.2,1.2-3.3,0.5l-2-1.2c-0.8-0.5-1.1-1.6-0.7-2.4c0.1-0.1,0.1-0.2,0.2-0.3
									L171.6,140.3z"/>
							</g>
							<g id="_Group_90">
								<path id="_Path_44" class="st28" d="M172,140.8c0.7-0.8,1.8-0.9,2.7-0.4l1.7,1c0.7,0.4,0.9,1.3,0.5,1.9
									c0,0.1-0.1,0.2-0.2,0.2l-4.4,5c-0.7,0.8-1.8,0.9-2.7,0.4L168,148c-0.7-0.4-0.9-1.3-0.5-2c0-0.1,0.1-0.2,0.2-0.2L172,140.8z"
									/>
							</g>
						</g>
						<g id="_Group_91">
							<g id="_Group_92">
								<g id="_Group_93">
									<path id="_Path_45" class="st32" d="M176.7,159c0.8,0.6,1.8,0.8,2.9,0.8c0.9-0.1,1.7-0.3,2.6-0.6c2.2-0.7,3.9-1.3,6.4,2.4
										l1.8-1.2c-3.5-5.1-6.6-4.1-8.9-3.3c-0.6,0.3-1.3,0.4-1.9,0.5c-1.3,0.1-2.6-1.1-3.4-2.1c-0.3-0.4-0.6-0.7-0.9-1
										c-0.3,0.2-0.5,0.4-0.8,0.6c-0.4,0.3-0.8,0.6-0.7,0.7c0.2,0.3,0.3,0.5,0.5,0.8C174.9,157.6,175.8,158.4,176.7,159z"/>
								</g>
							</g>
							<g id="_Group_94">
								<path id="_Path_46" class="st53" d="M179.2,158.5c0.7-0.1,1.4-0.2,2-0.5c2.2-0.8,5.2-1.8,8.6,2.9l-1.2,0.9
									c-2.6-3.8-4.3-3.2-6.4-2.4c-0.8,0.3-1.7,0.5-2.6,0.6c-1,0-2-0.3-2.9-0.8c-1-0.6-1.8-1.4-2.5-2.4l-0.3-0.5
									c-0.1-0.2-0.3-0.3-0.2-0.4c0.3-0.3,0.9-0.8,0.9-0.8c0.4,0.4,0.9,0.9,1.2,1.3C176.6,157.4,177.9,158.5,179.2,158.5z"/>
							</g>
							<g id="_Group_95">
								<path id="_Path_47" class="st25" d="M188.2,161.1c0.1,0.2,0.1,0.4,0,0.6c-0.3,0.8,0.7,2.2,0.7,2.2c2.5,3.5,1.7,4.7,1.7,4.7
									c-0.8,1.4-1.6,0.3-1.6,0.3c-0.3-0.4-0.2-0.9,0.2-1.2c0.1-0.1,0.2-0.1,0.3-0.2c0.9-1.1-2.4-4.9-2.4-4.9
									c-1.5-1.9-1.1-3-0.8-3.5c0.1-0.1,0.3-0.1,0.4-0.1c0,0,0,0,0.1,0.1L188.2,161.1z"/>
							</g>
							<g id="_Group_96">
								<g id="_Group_97">
									<g id="_Clip_Group_5">
										<g>
											<defs>
												<path id="SVGID_21_" d="M192.4,161.9l-1.3-2c-0.2-0.3-0.6-0.4-1-0.4l1.3,2C191.8,161.4,192.1,161.6,192.4,161.9z"/>
											</defs>
											<clipPath id="SVGID_22_">
												<use xlink:href="#SVGID_21_"  style="overflow:visible;"/>
											</clipPath>
											<g class="st58">
												<g id="_Group_98">
													<g id="_Group_99">
														<path id="_Path_48" class="st59" d="M192.4,161.9l-1.3-2c-0.2-0.3-0.6-0.4-1-0.4l1.3,2
															C191.7,161.4,192.1,161.6,192.4,161.9L192.4,161.9z"/>
													</g>
												</g>
											</g>
										</g>
									</g>
									<g id="_Clip_Group_6">
										<g>
											<defs>
												<path id="SVGID_23_" d="M187.7,162l1.3,2c-0.2-0.3-0.1-0.7,0.1-1c0.5-0.9,1.4-1.4,2.4-1.6l-1.3-2
													c-1,0.1-1.9,0.7-2.4,1.6C187.5,161.3,187.5,161.7,187.7,162z"/>
											</defs>
											<clipPath id="SVGID_24_">
												<use xlink:href="#SVGID_23_"  style="overflow:visible;"/>
											</clipPath>
											<g class="st60">
												<g id="_Group_100">
													<g id="_Group_101">
														<path id="_Path_49" class="st59" d="M191.4,161.5l-1.3-2c-0.3,0-0.5,0.1-0.8,0.2l1.3,2
															C190.9,161.6,191.2,161.5,191.4,161.5z"/>
													</g>
													<g id="_Group_102">
														<path id="_Path_50" class="st61" d="M190.6,161.7l-1.3-2c-0.3,0.1-0.6,0.3-0.9,0.5l1.3,2
															C190,162,190.3,161.8,190.6,161.7z"/>
													</g>
													<g id="_Group_103">
														<path id="_Path_51" class="st59" d="M189.8,162.2l-1.3-2c-0.3,0.2-0.5,0.5-0.7,0.8c-0.2,0.3-0.2,0.7,0,1l1.3,2
															c-0.2-0.3-0.1-0.7,0.1-1C189.3,162.7,189.5,162.4,189.8,162.2L189.8,162.2z"/>
													</g>
												</g>
											</g>
										</g>
									</g>
									<g id="_Group_104">
										<g id="_Group_105">
											<path id="_Path_52" class="st52" d="M191.4,161.5c-1,0.1-1.9,0.7-2.4,1.6c-0.4,0.8,0,1.4,0.9,1.4c1-0.1,1.9-0.7,2.4-1.6
												C192.8,162.1,192.3,161.4,191.4,161.5z"/>
										</g>
									</g>
								</g>
							</g>
							<g id="_Group_106">
								<g id="_Group_107">
									<g id="_Clip_Group_7">
										<g>
											<defs>
												<path id="SVGID_25_" d="M196.2,168.9l-4.2-6.4c-0.2-0.2-0.4-0.3-0.7-0.3l4.2,6.4C195.8,168.6,196,168.7,196.2,168.9z"/>
											</defs>
											<clipPath id="SVGID_26_">
												<use xlink:href="#SVGID_25_"  style="overflow:visible;"/>
											</clipPath>
											<g class="st62">
												<g id="_Group_108">
													<g id="_Group_109">
														<path id="_Path_53" class="st44" d="M196.2,168.9l-4.2-6.4c-0.2-0.2-0.4-0.3-0.7-0.3l4.2,6.4
															C195.8,168.6,196,168.7,196.2,168.9L196.2,168.9z"/>
													</g>
												</g>
											</g>
										</g>
									</g>
									<g id="_Clip_Group_8">
										<g>
											<defs>
												<path id="SVGID_27_" d="M189.7,164l4.2,6.4c-0.1-0.2-0.1-0.5,0-0.7c0.3-0.6,1-1,1.6-1.1l-4.2-6.4
													c-0.7,0.1-1.3,0.5-1.6,1.1C189.5,163.5,189.5,163.8,189.7,164z"/>
											</defs>
											<clipPath id="SVGID_28_">
												<use xlink:href="#SVGID_27_"  style="overflow:visible;"/>
											</clipPath>
											<g class="st63">
												<g id="_Group_110">
													<g id="_Group_111">
														<path id="_Path_54" class="st44" d="M195.5,168.6l-4.2-6.4c-0.2,0-0.4,0.1-0.5,0.1l4.2,6.4
															C195.1,168.7,195.3,168.7,195.5,168.6L195.5,168.6z"/>
													</g>
													<g id="_Group_112">
														<path id="_Path_55" class="st46" d="M195,168.8l-4.2-6.4c-0.2,0.1-0.4,0.2-0.6,0.4l4.2,6.4
															C194.6,169,194.8,168.9,195,168.8z"/>
													</g>
													<g id="_Group_113">
														<path id="_Path_56" class="st44" d="M194.4,169.1l-4.2-6.4c-0.2,0.2-0.4,0.4-0.5,0.6c-0.1,0.2-0.1,0.5,0,0.7l4.2,6.4
															c-0.1-0.2-0.1-0.5,0-0.7C194,169.5,194.1,169.3,194.4,169.1L194.4,169.1z"/>
													</g>
												</g>
											</g>
										</g>
									</g>
									<g id="_Group_114">
										<g id="_Group_115">
											<path id="_Path_57" class="st64" d="M195.5,168.6c-0.7,0.1-1.3,0.5-1.6,1.1c-0.3,0.6,0,1,0.6,1c0.7-0.1,1.3-0.5,1.6-1.1
												C196.4,169.1,196.1,168.6,195.5,168.6z"/>
										</g>
									</g>
								</g>
							</g>
							<g id="_Group_116">
								<g id="_Group_117">
									<g id="_Group_118">
										<path id="_Path_58" class="st32" d="M183.1,156.9c0,0.2,0.1,0.3,0.3,0.3c0,0,0,0,0,0c0.2,0,0.3-0.1,0.3-0.3
											c0-0.9,0.6-1.7,1.4-2l3.2-1.3c0.2-0.1,0.2-0.2,0.2-0.4c0,0,0,0,0,0c-0.1-0.2-0.2-0.2-0.4-0.2c0,0,0,0,0,0l-3.2,1.3
											C183.8,154.7,183.1,155.8,183.1,156.9z"/>
									</g>
								</g>
								<g id="_Group_119">
									<g id="_Group_120">
										<path id="_Path_59" class="st40" d="M187.5,153.7c1.2,2.5,3.6,3.8,5.3,3s2-3.5,0.8-6s-3.6-3.8-5.3-3
											S186.3,151.2,187.5,153.7z"/>
									</g>
									<g id="_Group_121">
										<path id="_Path_60" class="st38" d="M193,151c-1.2-2.4-3.5-3.8-5.2-3c0.2-0.1,0.3-0.3,0.5-0.4c1.7-0.8,4,0.5,5.3,3
											s0.9,5.2-0.8,6h-0.1C194,155.6,194.1,153.2,193,151z"/>
									</g>
								</g>
							</g>
						</g>
						<g id="_Group_122">
							
								<linearGradient id="_Path_61_1_" gradientUnits="userSpaceOnUse" x1="145.18" y1="123.7323" x2="169.0805" y2="123.7323" gradientTransform="matrix(1 0 0 -1 0 330)">
								<stop  offset="0" style="stop-color:#594A42"/>
								<stop  offset="0.5" style="stop-color:#8B5E3C"/>
								<stop  offset="1" style="stop-color:#603913"/>
							</linearGradient>
							<path id="_Path_61" class="st65" d="M147,202.5c-0.2,0.4-0.5,2-0.7,2.5c-0.5,1.6-1,4.5-1,4.5c-0.2,0.9,0,1.9,0.6,2.7
								c0.4,0.4,0.9,0.7,1.4,0.9c1.7,0.9,3.8,0.9,5.6,0.1c3.4-1.3,10.9-5.6,13.6-7.4c2.1-1.3,2.5-2.2,2.5-2.2s0.7-2.6-0.8-3.9
								c-2.7-2.1-8.2-1-9.1,0.3c-1.3,1.9-5,4.5-5.8,4.4c-1.5-0.1,0.1-0.8-1-1.7S147.6,200.9,147,202.5z"/>
							
								<linearGradient id="_Path_62_1_" gradientUnits="userSpaceOnUse" x1="146.65" y1="128.7523" x2="160.9" y2="128.7523" gradientTransform="matrix(1 0 0 -1 0 330)">
								<stop  offset="0" style="stop-color:#594A42"/>
								<stop  offset="0.5" style="stop-color:#8B5E3C"/>
								<stop  offset="1" style="stop-color:#603913"/>
							</linearGradient>
							<path id="_Path_62" class="st66" d="M154.6,197.2c1-0.2,5.6-0.5,6-0.1c1,0.9-0.2,2.3-0.8,3.5s-5,4.7-5,4.7
								c-1.4,0.3-2.9,0.4-4.4,0.5c-6.8-0.7-2.2-4-2.2-4S149.4,198.5,154.6,197.2z"/>
							<path id="_Path_63" class="st67" d="M153.5,197.1c1-0.2,5.8-0.7,6.1-0.2c0.8,1.2-0.6,3-1.2,4.2s-4.6,5-4.6,5s-0.2-2-1.2-2.1
								c-6.8-0.7-5.6-1.4-5.6-1.4C148.1,199.8,150.6,197.8,153.5,197.1z"/>
							<path id="_Path_64" class="st68" d="M154.1,211.6l-2.6-3.6c-0.7-1-3.4-2.5-4.5-2.4c-0.4,0-0.7,0.2-1,0.4
								c-0.4,1.6-0.8,3.6-0.8,3.6c-0.2,0.9,0,1.9,0.6,2.7c0.1,0.1,0.2,0.2,0.3,0.2c1.1,0.4,2.3,0.6,3.5,0.7
								C153.6,213.3,154.1,211.6,154.1,211.6z"/>
							<path id="_Path_65" class="st69" d="M168.9,202.2c0,0-0.3,0.9-2.5,2.2c-2.8,1.7-10.2,6-13.6,7.4c-1.8,0.8-3.8,0.8-5.6-0.1
								c-0.5-0.2-1-0.5-1.4-0.9c-0.3-0.3-0.5-0.8-0.6-1.2l0,0c-0.2,0.9,0,1.9,0.6,2.7c0.4,0.4,0.9,0.7,1.4,0.9
								c1.7,0.9,3.8,0.9,5.6,0.1c3.4-1.3,10.9-5.6,13.6-7.4c2.1-1.3,2.5-2.2,2.5-2.2c0.2-0.7,0.2-1.4,0.1-2.1
								C169,201.8,169,202,168.9,202.2z"/>
						</g>
						
							<linearGradient id="_Path_66_1_" gradientUnits="userSpaceOnUse" x1="124.9451" y1="145.1707" x2="164.7836" y2="145.1707" gradientTransform="matrix(1 0 0 -1 0 330)">
							<stop  offset="0" style="stop-color:#242438"/>
							<stop  offset="1" style="stop-color:#34344C"/>
						</linearGradient>
						<path id="_Path_66" class="st70" d="M127.8,173.1l27.5-8.4c0,0,11.1-3.2,9.3,8.4c-1.2,7.5-5.2,27.5-5.8,28.8
							c0,0-3.4,4.7-7.4,3.4c-4.1-1.4-4.8-2.9-4.8-2.9s3.3-13.9,3.5-17.7c0-0.6-12.2,2.3-12.2,2.3s-7.1,2.5-11.2-3.2
							C122.2,177.2,127.8,173.1,127.8,173.1z"/>
						<g id="_Group_123">
							
								<linearGradient id="_Path_67_1_" gradientUnits="userSpaceOnUse" x1="187.5614" y1="123.8663" x2="157.1514" y2="112.6963" gradientTransform="matrix(1 0 0 -1 0 330)">
								<stop  offset="0" style="stop-color:#594A42"/>
								<stop  offset="0.5" style="stop-color:#8B5E3C"/>
								<stop  offset="1" style="stop-color:#603913"/>
							</linearGradient>
							<path id="_Path_67" class="st71" d="M164,208.5c-0.2,0.4-0.5,2-0.7,2.6c-0.5,1.6-1,4.5-1,4.5c-0.2,0.9,0,1.9,0.6,2.7
								c0.4,0.4,0.9,0.7,1.4,0.9c1.7,0.9,3.8,0.9,5.6,0.1c3.4-1.3,10.9-5.6,13.6-7.3c2.1-1.3,2.5-2.2,2.5-2.2s0.7-2.6-0.8-3.9
								c-2.7-2.1-8.2-1-9.1,0.3c-1.3,1.9-5,4.5-5.8,4.4c-1.5-0.1,0.1-0.8-1-1.7S164.7,206.9,164,208.5z"/>
							
								<linearGradient id="_Path_68_1_" gradientUnits="userSpaceOnUse" x1="187.508" y1="124.0255" x2="157.098" y2="112.8655" gradientTransform="matrix(1 0 0 -1 0 330)">
								<stop  offset="0" style="stop-color:#594A42"/>
								<stop  offset="0.5" style="stop-color:#8B5E3C"/>
								<stop  offset="1" style="stop-color:#603913"/>
							</linearGradient>
							<path id="_Path_68" class="st72" d="M185.1,205.9c-1.6-1.1-3.6-1.5-5.5-1.1c1.5,0.6,2.6,1.9,3,3.5c0.4,1.2,0.4,2.4,0.1,3.6
								c0.7-0.2,1.4-0.5,2.1-0.8l0.3-0.3l0,0c0.2-0.1,0.3-0.3,0.4-0.4l0,0c0.1-0.1,0.2-0.2,0.2-0.3l0,0c0-0.1,0.1-0.1,0.1-0.2l0,0
								l0,0C185.9,209.8,186.7,207.1,185.1,205.9z"/>
							
								<linearGradient id="_Path_69_1_" gradientUnits="userSpaceOnUse" x1="163.6993" y1="123.4123" x2="177.6693" y2="123.4123" gradientTransform="matrix(1 0 0 -1 0 330)">
								<stop  offset="0" style="stop-color:#594A42"/>
								<stop  offset="0.5" style="stop-color:#8B5E3C"/>
								<stop  offset="1" style="stop-color:#603913"/>
							</linearGradient>
							<path id="_Path_69" class="st73" d="M173.1,201.6c1-0.2,4.1-0.2,4.5,1.4c0.2,1.2-0.1,2.4-0.8,3.5c-0.8,1.4-1.8,2.6-2.8,3.9
								c0,0-5.5,1.4-6.6,1.3c-6.8-0.7-2.2-4-2.2-4C167,204.8,169.8,202.6,173.1,201.6z"/>
							
								<linearGradient id="_Path_70_1_" gradientUnits="userSpaceOnUse" x1="163.89" y1="122.6255" x2="176.5" y2="122.6255" gradientTransform="matrix(1 0 0 -1 0 330)">
								<stop  offset="0" style="stop-color:#594A42"/>
								<stop  offset="0.5" style="stop-color:#8B5E3C"/>
								<stop  offset="1" style="stop-color:#603913"/>
							</linearGradient>
							<path id="_Path_70" class="st74" d="M170.5,203.1c1-0.3,4.4-0.9,5.6,0.1s-0.4,3.9-1,5.1s-4.3,3.7-4.3,3.7s-0.2-2-1.2-2.1
								c-6.8-0.7-5.6-1.4-5.6-1.4C165.1,205.8,167.6,203.8,170.5,203.1z"/>
							
								<linearGradient id="_Path_71_1_" gradientUnits="userSpaceOnUse" x1="186.7" y1="127.71" x2="155.66" y2="116.32" gradientTransform="matrix(1 0 0 -1 0 330)">
								<stop  offset="0" style="stop-color:#594A42"/>
								<stop  offset="0.5" style="stop-color:#8B5E3C"/>
								<stop  offset="1" style="stop-color:#603913"/>
							</linearGradient>
							<path id="_Path_71" class="st75" d="M163.1,211.9c0,0,0.8-4,1.1-3.9c0.8,0.3,2.6,0.1,3.8,0.5s1.8-5.5,3.1-5.9
								c1.1-0.3,4.4,4.5,4.3,6.1c0,0.7-3.2,4.3-5.9,5.2C164.4,215.8,163.1,211.9,163.1,211.9z"/>
							<path id="_Path_72" class="st69" d="M186,208.2c0,0-0.3,0.9-2.5,2.2c-2.7,1.7-10.2,6-13.6,7.4c-1.8,0.8-3.9,0.8-5.6,0
								c-0.5-0.2-1-0.6-1.4-1c-0.3-0.4-0.4-0.8-0.5-1.3l0,0c-0.2,1-0.1,2,0.5,2.8c0.4,0.4,1,0.7,1.5,0.9c1.7,0.8,3.8,0.8,5.5,0
								c3.4-1.3,10.9-5.6,13.6-7.3c2.1-1.3,2.5-2.2,2.5-2.2c0.2-0.7,0.2-1.4,0.1-2.1C186.1,208.1,186,208.2,186,208.2z"/>
						</g>
						<g id="_Group_124">
							<g id="_Group_125">
								<g id="_Group_126">
									<g id="_Group_127">
										<g id="_Group_128">
											<path id="_Compound_Path_5" class="st26" d="M111.4,227.6c7.4-4.3,13.4-0.8,13.4,7.7s-6,18.9-13.3,23.1
												c-2.2,1.4-4.8,2-7.4,1.7c-3.6-0.7-6-4-6-9.4C98,242.2,104,231.8,111.4,227.6z"/>
										</g>
									</g>
								</g>
							</g>
							<g id="_Group_129">
								<g id="_Group_130">
									<g id="_Group_131">
										<path id="_Path_73" class="st26" d="M99.6,256.2c0,0-0.5,0.8,1.4,2.4c3.3,2.7,7.9,6,13.1,4.4c2.7-0.8,15.4-31,15.4-31
											s-1.9-4.8-9.8-5.5s-14.5,8.2-14.5,8.2L99.6,256.2z"/>
									</g>
								</g>
							</g>
							<g id="_Group_132">
								<g id="_Group_133">
									<g id="_Group_134">
										<g id="_Group_135">
											<path id="_Compound_Path_6" class="st27" d="M117.8,230.7c7.4-4.3,13.4-0.8,13.4,7.7s-6,18.9-13.4,23.1
												c-2.2,1.4-4.8,2-7.4,1.7c-3.6-0.7-6-4-6-9.4C104.4,245.3,110.4,235,117.8,230.7z"/>
										</g>
									</g>
								</g>
							</g>
							<g id="_Group_136">
								<g id="_Group_137">
									<g id="_Group_138">
										<g id="_Group_139">
											<g id="_Group_140">
												<g id="_Group_141">
													<g id="_Group_142">
														<path id="_Compound_Path_7" class="st28" d="M114.8,257.2c-3.3,0-5.4-2.6-5.4-6.7c0-5.5,3.9-12.3,8.7-15.1
															c1.2-0.8,2.7-1.2,4.1-1.2c3.3,0,5.4,2.6,5.4,6.7c0,5.5-3.9,12.3-8.7,15.1C117.7,256.7,116.2,257.2,114.8,257.2z"/>
													</g>
												</g>
											</g>
										</g>
									</g>
								</g>
								<g id="_Group_143">
									<g id="_Group_144">
										<g id="_Group_145">
											<g id="_Group_146">
												<path id="_Path_74" class="st29" d="M112,255.7c0.8,0.7,1.8,1,2.8,1c1.4,0,2.7-0.5,3.8-1.2c4.7-2.7,8.4-9.2,8.4-14.6
													c0-2.5-0.9-4.4-2.3-5.4h-0.1C124.7,235.6,125.4,248.3,112,255.7z"/>
											</g>
										</g>
									</g>
								</g>
								<g id="_Group_147">
									<g id="_Group_148">
										<g id="_Group_149">
											<g id="_Group_150">
												<g id="_Group_151">
													<path id="_Compound_Path_8" class="st30" d="M116.3,252.7c-1.9,0-3.1-1.5-3.1-3.9c0.2-3.7,2.1-7,5.2-9.1
														c0.7-0.5,1.6-0.7,2.4-0.7c1.9,0,3.1,1.5,3.1,3.9c-0.2,3.7-2.2,7-5.2,9C118,252.4,117.2,252.6,116.3,252.7z"/>
												</g>
											</g>
										</g>
									</g>
								</g>
							</g>
						</g>
						<g id="_Group_152">
							<g id="_Group_153">
								<path id="_Path_75" class="st76" d="M92.1,235.4c0,0-3.6,9.3-2.3,11.1s6.3,5.4,10.6,4.3s10-11.4,10.6-13.1s-4.2-3.1-4.2-3.1
									L92.1,235.4z"/>
							</g>
							<g id="_Group_154">
								<path id="_Path_76" class="st77" d="M99.4,250.4c-2.4,0.7,7.3-13.6,7.3-13.6l4,0.3C110.7,237.2,104.7,248.9,99.4,250.4z"/>
							</g>
							<g id="_Group_155">
								<path id="_Path_77" class="st77" d="M92.1,235.4h0.1l1.4,1c-1.5,2.9-2.7,5.9-3.6,9.1C88.5,244.6,92.1,235.4,92.1,235.4z"/>
							</g>
						</g>
						<g id="_Group_156">
							<path id="_Path_78" class="st78" d="M135.6,212c0,0,2.3-20.8-12.6-18.4c0,0-22.4,3.3-33,32.5c-0.1,0.3,0.1,0.7,0.4,0.8
								c0.1,0,0.1,0,0.2,0l9.8-0.3c0.6,0,1.1-0.2,1.6-0.5c3.1-2,15.7-9.3,27.1-8.9L135.6,212z"/>
						</g>
						<g id="_Group_157">
							<g id="_Group_158">
								<path id="_Path_79" class="st76" d="M127.1,243.2c0.2-0.1,0.5-0.3,0.7-0.4c1.5-0.5,3.2-0.3,4.6,0.6c0.1,0.1,0.2,0.1,0.3,0.2
									l0,0c0.6,0.4,0.9,1.1,0.9,1.7c0,0,0,0.1,0,0.1v0.1c-0.1,0.5-0.2,0.9-0.4,1.4c-0.6,1.4-1.7,2.5-3.1,3.1c-0.3,0.1-0.7,0-1-0.2
									c-1.3-1.2-2.2-2.8-2.5-4.6C126.5,244,126.7,243.4,127.1,243.2z"/>
							</g>
							<g id="_Group_159">
								<g id="_Clip_Group_9">
									<g>
										<defs>
											<path id="SVGID_29_" d="M109.3,251c-0.5,0.2-0.9,0.5-1.3,0.8c-0.5,0.4-0.9,0.8-1.2,1.3c-0.3,0.5-0.6,1-0.7,1.6
												c-0.2,0.5-0.2,1.1-0.1,1.6c0,0.1,0,0.1,0,0.2c0-0.1,0-0.1,0-0.2c0,0.2,0,0.2,0.1,0.2l0,0c0,0.1,0.1,0.1,0.1,0.2
												c0.2,0.2,0.4,0.4,0.7,0.6c0.5,0.4,1.2,0.7,1.8,0.8c1.2,0.3,2.5,0.2,3.7-0.3c0.5-0.2,0.7-1,0.5-2.1
												c-0.3-1.8-1.1-3.4-2.5-4.6C110.1,251,109.7,250.9,109.3,251z"/>
										</defs>
										<clipPath id="SVGID_30_">
											<use xlink:href="#SVGID_29_"  style="overflow:visible;"/>
										</clipPath>
										<g class="st79">
											<g id="_Group_160">
												<path id="_Path_80" class="st76" d="M106.1,256.4c-0.2-0.4-0.2-0.9-0.1-1.4c0.4-1.8,1.6-3.3,3.3-4.1
													c0.3-0.1,0.7,0,1,0.2c1.3,1.2,2.2,2.8,2.5,4.6c0.2,1.1,0,1.9-0.5,2.1c-0.2,0.1-0.5,0.2-0.7,0.3h-0.1h-0.1
													c-0.3,0.1-0.6,0.1-0.9,0.1c-0.6,0.1-1.2,0-1.8-0.1c-0.6-0.1-1.2-0.4-1.7-0.7C106.6,257.2,106.3,256.8,106.1,256.4z"/>
											</g>
										</g>
									</g>
								</g>
								<g id="_Clip_Group_10">
									<g>
										<defs>
											<path id="SVGID_31_" d="M127.8,242.8l-0.3,0.1c-2,0.9-16.2,7.2-18.1,8.1c0.3-0.1,0.7,0,1,0.2c1.3,1.2,2.2,2.8,2.5,4.6
												c0.2,1.1,0,1.9-0.5,2.1l0,0c2.1-0.9,16.4-7.3,18.4-8.2c0.5-0.2,0.7-1,0.5-2.1c-0.3-1.8-1.1-3.4-2.5-4.6
												C128.5,242.8,128.1,242.7,127.8,242.8z"/>
										</defs>
										<clipPath id="SVGID_32_">
											<use xlink:href="#SVGID_31_"  style="overflow:visible;"/>
										</clipPath>
										<g class="st80">
											<g id="_Group_161">
												<g id="_Group_162">
													<path id="_Path_81" class="st81" d="M127.8,242.8l-18.4,8.2c0.3-0.1,0.7,0,1,0.2c1.3,1.2,2.2,2.8,2.5,4.6
														c0.2,1.1,0,1.9-0.5,2.1l18.4-8.2c0.5-0.2,0.7-1,0.5-2.1c-0.3-1.8-1.1-3.4-2.5-4.6C128.5,242.8,128.1,242.7,127.8,242.8
														L127.8,242.8z"/>
												</g>
											</g>
										</g>
									</g>
								</g>
								<g id="_Group_163">
									<g id="_Group_164">
										<path id="_Path_82" class="st82" d="M107.1,255c0.6,0.4,0.9,1.1,0.9,1.7c0,0.6-0.5,0.8-1,0.5c-0.6-0.4-0.9-1.1-0.9-1.7
											C106.2,254.9,106.6,254.7,107.1,255z"/>
									</g>
								</g>
							</g>
						</g>
						<g id="_Group_165">
							<g id="_Clip_Group_11">
								<g>
									<defs>
										<path id="SVGID_33_" d="M150.2,228l-4.1-2c-1.2-0.6-2.8-0.4-4.6,0.7l4.1,2.1C147.4,227.6,149,227.4,150.2,228z"/>
									</defs>
									<clipPath id="SVGID_34_">
										<use xlink:href="#SVGID_33_"  style="overflow:visible;"/>
									</clipPath>
									<g class="st83">
										<g id="_Group_166">
											<g id="_Group_167">
												<path id="_Path_83" class="st38" d="M150.2,228l-4.1-2c-1.2-0.6-2.8-0.4-4.6,0.7l4.1,2.1
													C147.4,227.7,149,227.5,150.2,228L150.2,228z"/>
											</g>
										</g>
									</g>
								</g>
							</g>
							<g id="_Clip_Group_12">
								<g>
									<defs>
										<path id="SVGID_35_" d="M137.9,242.3l4.1,2.1c-1.2-0.6-2-2-2.1-4.1c0-4.6,2.1-8.8,5.8-11.6l-4.1-2.1
											c-3.7,2.7-5.8,7-5.8,11.6C135.9,240.3,136.7,241.7,137.9,242.3z"/>
									</defs>
									<clipPath id="SVGID_36_">
										<use xlink:href="#SVGID_35_"  style="overflow:visible;"/>
									</clipPath>
									<g class="st84">
										<g id="_Group_168">
											<g id="_Group_169">
												<path id="_Path_84" class="st38" d="M145.6,228.8l-4.1-2.1c-1,0.7-1.9,1.6-2.7,2.6l4.1,2.1
													C143.7,230.3,144.6,229.5,145.6,228.8z"/>
											</g>
											<g id="_Group_170">
												<path id="_Path_85" class="st38" d="M143,231.3l-4.1-2.1c-1,1.2-1.7,2.6-2.3,4.1l4.1,2.1
													C141.3,233.9,142,232.5,143,231.3z"/>
											</g>
											<g id="_Group_171">
												<path id="_Path_86" class="st38" d="M140.7,235.4l-4.1-2.1c-0.6,1.6-0.9,3.2-0.8,4.9c0.1,2.1,0.9,3.4,2.1,4.1l4.1,2.1
													c-1.2-0.6-2-2-2.1-4.1C139.8,238.6,140.1,237,140.7,235.4z"/>
											</g>
										</g>
									</g>
								</g>
							</g>
							<g id="_Group_172">
								<g id="_Group_173">
									<path id="_Path_87" class="st39" d="M145.6,228.8c-3.7,2.7-5.8,7-5.8,11.6c0.2,4.1,3.3,5.6,6.7,3.3c3.7-2.7,5.8-7,5.8-11.6
										C152.1,228,149.1,226.5,145.6,228.8z"/>
								</g>
							</g>
							<g id="_Group_174">
								<g id="_Group_175">
									<path id="_Path_88" class="st25" d="M145.9,230.5c-2.9,2.1-4.5,5.4-4.5,9c0.2,3.2,2.6,4.4,5.2,2.6c2.9-2.1,4.5-5.4,4.5-9
										C150.9,229.9,148.6,228.7,145.9,230.5z"/>
								</g>
							</g>
						</g>
						<g id="_Group_176">
							
								<linearGradient id="_Path_89_1_" gradientUnits="userSpaceOnUse" x1="100.166" y1="105.949" x2="164.5461" y2="134.0891" gradientTransform="matrix(1 0 0 -1 0 330)">
								<stop  offset="0" style="stop-color:#3929CE"/>
								<stop  offset="1" style="stop-color:#E77DF8"/>
							</linearGradient>
							<path id="_Path_89" class="st85" d="M157.5,192.7c0,0-2.1,8.4-2.4,10.6c-0.7,4.1,0.7,11,1.1,12.7c0.1,0.4,3.1,3.4,2.3,6.5
								l-6.6,1.7l-36.9,9.1l-21.7-8.9c0,0,5.9-17.2,17.4-23.7c0,0,2.6-1.6,2.9-5.9S157.5,192.7,157.5,192.7z"/>
						</g>
						<g id="_Group_177">
							<g id="_Group_178">
								<path id="_Path_90" class="st86" d="M112,237.5l-1.6,4.8c-0.2,0.5,0,1,0.4,1.4l5.4,3.9c0.4,0.3,1,0.4,1.5,0.2
									c3.1-1.2,14.6-6,20.5-10.9c0,0,3.6-2.7,0.5-5.5c0,0-2.8-1.8-9.6-2.3S112,237.5,112,237.5z"/>
							</g>
							<g id="_Group_179">
								<path id="_Path_91" class="st77" d="M117,247.7c1.1-4.2,5.9-17.6,21.8-16.3c3,2.8-0.6,5.5-0.6,5.5
									c-6.6,5.5-20.3,10.7-21.1,11C117.1,247.9,117,247.7,117,247.7z"/>
							</g>
						</g>
						<g id="_Group_180">
							<g id="_Group_181">
								
									<linearGradient id="_Path_92_1_" gradientUnits="userSpaceOnUse" x1="93.9995" y1="108.9447" x2="85.0995" y2="103.4447" gradientTransform="matrix(1 0 0 -1 0 330)">
									<stop  offset="0" style="stop-color:#3929CE"/>
									<stop  offset="1" style="stop-color:#E77DF8"/>
								</linearGradient>
								<path id="_Path_92" class="st87" d="M87,221.4c2.3-1.4,4-1.3,5.1-0.9c1.1,0.4,1.7,1.5,1.5,2.6c-0.2,1.2-1,2.9-3.5,4.2
									L87,221.4z"/>
							</g>
							<g id="_Group_182">
								
									<linearGradient id="_Path_93_1_" gradientUnits="userSpaceOnUse" x1="84.86" y1="105.4728" x2="90.12" y2="105.4728" gradientTransform="matrix(1 0 0 -1 0 330)">
									<stop  offset="0" style="stop-color:#F2A23E"/>
									<stop  offset="0.58" style="stop-color:#FFBD58"/>
									<stop  offset="1" style="stop-color:#FFCD64"/>
								</linearGradient>
								<path id="_Path_93" class="st88" d="M89.8,227.6c0.1,0,0.2-0.1,0.2-0.2c0.1-0.8,0.6-4.7-3.1-6.1c-0.1,0-0.2,0-0.3,0.1
									c-1.4,1-2,2.8-1.6,4.5C85,225.9,85.6,228.2,89.8,227.6z"/>
							</g>
						</g>
						<g id="_Group_183">
							<g id="_Group_184">
								<path id="_Path_94" class="st32" d="M99.7,216.8c0,0,2.9-3.6,6.4-2.1c3.9,1.7,3.5,6.5,3.1,9c-0.1,0.8,0,1.7,0.5,2.4l3,4.2
									l-2.9,6.9c-1.7-0.3-3.4-0.3-5.1-0.1c-1.7,0.4-2.9,3.1-6.7,1.6c-3-1.3-5.9-3-8.3-5.1c-1.1-1.2-0.8-3.2,0.5-3.7
									c1.7-0.5,3.1-1.5,4.1-2.9C95.1,225.7,99.7,216.8,99.7,216.8z"/>
							</g>
							<g id="_Group_185">
								<path id="_Path_95" class="st77" d="M90,231c0-0.1,0.1-0.1,0.1-0.1c0,0,0,0,0.1,0c1.3,0.7,8.9,4.6,9.7,5.1s0.1,2.1,0.1,2.2
									c0.1-0.6,0-1.2-0.4-1.7c-1-1.1-8.1-4.6-9.4-5.2C90.1,231.3,90,231.1,90,231z"/>
							</g>
							<g id="_Group_186">
								<path id="_Path_96" class="st77" d="M100.3,235.9c0,0,5.6-4.9,7.1-6.2c0.4-0.4,0.9,0.2-0.1,1.2l-6.6,5.9
									C100.6,236.7,100.7,236,100.3,235.9z"/>
							</g>
						</g>
						<g id="_Group_187">
							<g id="_Group_188">
								<path id="_Path_97" class="st77" d="M155.5,222.7c0,0,2.3-20.8-12.6-18.4c0,0-22.4,3.2-33,32.5c-0.1,0.3,0,0.7,0.4,0.8
									c0.1,0,0.1,0,0.2,0l9.8-0.3c0.6,0,1.1-0.2,1.6-0.5c3.1-1.9,15.7-9.3,27.1-8.9L155.5,222.7z"/>
							</g>
							<g id="_Group_189">
								<path id="_Path_98" class="st33" d="M145.9,208.6c3.7-0.6,6.3,0.2,8.2,1.8c2.2,5.4,1.4,12.2,1.4,12.2L149,228
									c-11.4-0.4-24,6.9-27.1,8.9c-0.5,0.3-1,0.5-1.6,0.5l-5.9,0.2C125.4,211.6,145.9,208.6,145.9,208.6z"/>
							</g>
						</g>
						<g id="_Group_190">
							<g id="_Group_191">
								
									<linearGradient id="_Path_99_1_" gradientUnits="userSpaceOnUse" x1="118.0869" y1="98.8529" x2="109.6369" y2="89.7229" gradientTransform="matrix(1 0 0 -1 0 330)">
									<stop  offset="0" style="stop-color:#3929CE"/>
									<stop  offset="1" style="stop-color:#E77DF8"/>
								</linearGradient>
								<path id="_Path_99" class="st89" d="M111.7,233.1c2.3-1.4,4-1.3,5.1-0.9c1.1,0.4,1.7,1.5,1.5,2.6c-0.2,1.2-1,2.9-3.5,4.2
									L111.7,233.1z"/>
							</g>
							<g id="_Group_192">
								
									<linearGradient id="_Path_100_1_" gradientUnits="userSpaceOnUse" x1="109.57" y1="93.8411" x2="114.83" y2="93.8411" gradientTransform="matrix(1 0 0 -1 0 330)">
									<stop  offset="0" style="stop-color:#F2A23E"/>
									<stop  offset="0.58" style="stop-color:#FFBD58"/>
									<stop  offset="1" style="stop-color:#FFCD64"/>
								</linearGradient>
								<path id="_Path_100" class="st90" d="M114.6,239.2c0.1,0,0.2-0.1,0.2-0.2c0.1-0.9,0.6-4.7-3.1-6.1c-0.1,0-0.2,0-0.3,0.1
									c-1.4,1-2,2.8-1.6,4.5C109.7,237.5,110.3,239.8,114.6,239.2z"/>
							</g>
						</g>
						<g id="_Group_193">
							<g id="_Group_194">
								<path id="_Path_101" class="st91" d="M102.5,231.5l4.2-5.4c0.7-0.9,1.1-2,1.2-3.1c0.7-7.3-4-7.6-6.1-7.1
									c-1.8,0.6-3.5,1.4-5,2.5L102.5,231.5z"/>
							</g>
							<g id="_Group_195">
								<path id="_Path_102" class="st92" d="M102.8,231.1c-0.1,0.5-0.5,0.8-1,0.7c-1.8-0.3-3.6-0.9-5.1-1.9c-1.2-0.5-2.2-1.3-3-2.3
									c-0.3-0.4-0.4-1-0.2-1.5l3.1-7.3c0.2-0.5,0.8-0.7,1.3-0.6c1,0.1,1.9,0.4,2.8,0.9c1.1,0.5,2,1.1,2.9,1.9
									c0.4,0.4,0.6,0.9,0.5,1.5L102.8,231.1z"/>
							</g>
						</g>
						<g id="_Group_196">
							<path id="_Path_103" class="st25" d="M103.8,196.8c0.2-0.9,1-1.3,2.4-1.3c2.4,0.2,4.8,0.6,7.1,1.2c-0.1,0.7-0.4,1.4-0.8,2
								c-2.5-0.5-5.1-0.9-5.8-1c2.1,1.6,7.9,4.7,13.1,7.1c3.9,1.4,5.5,1,6,0.6c0.3-0.2,0.5-0.5,0.5-0.9v-0.1l0.2-2.4l2.1,0.6
								l-0.2,1.9c0,1-0.5,2-1.4,2.6c-0.9,0.6-1.9,0.8-2.9,0.8c-1.8-0.1-3.5-0.5-5.2-1.1h-0.1c0,0-3.8-1.7-7.5-3.7
								C104,199,103.6,197.8,103.8,196.8z"/>
						</g>
						<g id="_Group_197">
							<path id="_Path_104" class="st27" d="M113.6,196.4c-0.8-0.6-1.2-1.7-0.8-2.7l0.9-3c0.8-2.5,3-4.4,5.7-4.7
								c4.9-0.7,12.9-2,18.3-4.2c8.2-3.4,17.5-5.2,20.1,4.4c0,0,3.4,14.5-16.1,16.8c0,0-8,0.9-13.6-0.5
								C122.9,201.6,118,199.5,113.6,196.4z"/>
						</g>
						<g id="_Group_198">
							<path id="_Path_105" class="st93" d="M119.4,186c4.9-0.7,12.9-2,18.3-4.2c6.5-2.7,13.6-4.4,17.6-0.3c-3.6,0.7-7.9,2.8-12,8.2
								c-3.6,4.6-7.3,5.6-11.8,4.9c-4.2-0.6-12.5-6.3-14.6-7.8C117.7,186.4,118.5,186.1,119.4,186z"/>
						</g>
						
							<linearGradient id="_Path_106_1_" gradientUnits="userSpaceOnUse" x1="144.4256" y1="199.8559" x2="149.6056" y2="206.9759" gradientTransform="matrix(1 0 0 -1 0 330)">
							<stop  offset="0" style="stop-color:#B89883"/>
							<stop  offset="0.5" style="stop-color:#B58F73"/>
							<stop  offset="1" style="stop-color:#8F6D56"/>
						</linearGradient>
						<path id="_Path_106" class="st94" d="M144.7,119.4c-0.6,2.9-1.8,5.6-3.5,8l8.6,5.7c0,0,4.1-8,3.8-10.7
							C153.5,121.5,145.2,116.9,144.7,119.4z"/>
						<g id="_Group_199">
							
								<linearGradient id="_Path_107_1_" gradientUnits="userSpaceOnUse" x1="162.7843" y1="209.1548" x2="151.1443" y2="219.4648" gradientTransform="matrix(1 0 0 -1 0 330)">
								<stop  offset="0" style="stop-color:#B89883"/>
								<stop  offset="0.5" style="stop-color:#B58F73"/>
								<stop  offset="1" style="stop-color:#8F6D56"/>
							</linearGradient>
							<path id="_Path_107" class="st95" d="M156.5,104.6l6.2,0.9l-2.9,16c-0.8,4.6-2.8,5.1-4.2,5c-2.9-0.3-6-2.2-7.5-3.4
								c-3-2.2-2.3-7.6-2.3-8l0.1-10.9L156.5,104.6z"/>
							<path id="_Path_108" class="st96" d="M161.9,102.3c3.4,4.4,0.8,5.2,0.6,5.4c-1.7,1.1-3,5.6-3.4,7.4l-0.4,1.7
								c0,0.6-1,1.4-1.3,0.5s0.4-1.8,0-2.3s-1.7-0.9-3.2,2.5l-1.3,2.6c-1.2,2.4-4,2.8-6.1,2.3c0,0-1.9-0.4-2.3-1.2
								c-0.3-0.6-2.1-5.4-2.5-7c-1.5-5.3-0.3-9.8,2.8-12.6c1.3-1,3-1.7,4.6-1.8c3.1-0.2,1.9-1.5,1.9-1.5c1.1-0.1,2.1,1.2,2.6,1.6
								c1.8,1.1,0.7-1.2,0.7-1.3c0,0,0.8-0.2,1.9,1c0.4,0.5,0.9,1.5,1.6,1.7c1.4,0.6,1-1,1.1-1C160.2,100.7,161.1,101.4,161.9,102.3
								z"/>
							<g id="_Group_200">
								<path id="_Path_109" class="st97" d="M157.3,114.7c-0.9,0.1-1.6,0.8-1.9,1.6c-0.3,0.7-0.2,1.6,0.1,2.2
									c0.3,0.4,0.6,0.7,1.1,0.9c0,0,0.1-2.6,0.2-3.1C157,115.9,157.1,115.3,157.3,114.7z"/>
								
									<linearGradient id="_Path_110_1_" gradientUnits="userSpaceOnUse" x1="156.18" y1="212.8947" x2="158.41" y2="212.8947" gradientTransform="matrix(1 0 0 -1 0 330)">
									<stop  offset="0" style="stop-color:#C49F83"/>
									<stop  offset="0.72" style="stop-color:#B58F73"/>
									<stop  offset="1" style="stop-color:#8F6D56"/>
								</linearGradient>
								<path id="_Path_110" class="st98" d="M158,114.2c0,0,0.8,0.2,0.2,1.1c-0.5,0.7-0.8,1.5-0.9,2.3c0,0.7,0,1.5,0.1,2.2
									c0,0-0.6,0.9-1-0.3c-0.2-0.9-0.3-1.7-0.2-2.6C156.2,116.3,157.2,113.9,158,114.2z"/>
							</g>
						</g>
						
							<linearGradient id="_Path_111_1_" gradientUnits="userSpaceOnUse" x1="182.5234" y1="165.5563" x2="196.4371" y2="165.5563" gradientTransform="matrix(1 0 0 -1 0 330)">
							<stop  offset="0" style="stop-color:#B89883"/>
							<stop  offset="0.5" style="stop-color:#B58F73"/>
							<stop  offset="1" style="stop-color:#8F6D56"/>
						</linearGradient>
						<path id="_Path_111" class="st99" d="M182.5,163.9c0,0,3.7-1.9,4.7-2.6c1.4-1,3.3-1.3,4.9-0.8c1,0.3,3.7,4.1,4.1,5.1
							c0.7,2-0.9,1.6-1,1.5c-1.1-1.4-1.6-0.6-2.9,0c-0.8,0.3-0.8,0.4-3.1,1.4C185.9,169.8,182.4,166.7,182.5,163.9z"/>
						
							<linearGradient id="_Path_112_1_" gradientUnits="userSpaceOnUse" x1="188.6223" y1="168.7371" x2="154.8123" y2="179.7371" gradientTransform="matrix(1 0 0 -1 0 330)">
							<stop  offset="0" style="stop-color:#B89883"/>
							<stop  offset="0.5" style="stop-color:#B58F73"/>
							<stop  offset="1" style="stop-color:#8F6D56"/>
						</linearGradient>
						<path id="_Path_112" class="st100" d="M159.9,141.7l4.1,15.4c0.3,0.6,0.7,1,1.2,1.3c6.6,3.1,19.1,5.4,19.1,5.4
							s1.4,3.3,0.8,4.1s-20.2,0.9-26.3-3.3c-2.1-1.5-6.7-15.1-7.1-20.3c-0.2-2.5,1.1-6.1,3.5-6.6
							C157.6,137.1,159.1,138.2,159.9,141.7z"/>
						
							<linearGradient id="_Path_113_1_" gradientUnits="userSpaceOnUse" x1="124.7521" y1="147.67" x2="134.73" y2="147.67" gradientTransform="matrix(1 0 0 -1 0 330)">
							<stop  offset="0" style="stop-color:#242438"/>
							<stop  offset="1" style="stop-color:#34344C"/>
						</linearGradient>
						<path id="_Path_113" class="st101" d="M124.8,175.4c-0.1,2,0.1,4,0.6,5.9c0.8,2.4,2.5,4.3,4.8,5.4c2.2,1.2,4.6,2.4,4.6,2.4
							s-2-9-3.2-10.1S124.8,175.4,124.8,175.4z"/>
						
							<linearGradient id="_Path_114_1_" gradientUnits="userSpaceOnUse" x1="129.7918" y1="139.1107" x2="178.4" y2="139.1107" gradientTransform="matrix(1 0 0 -1 0 330)">
							<stop  offset="0" style="stop-color:#242438"/>
							<stop  offset="1" style="stop-color:#34344C"/>
						</linearGradient>
						<path id="_Path_114" class="st102" d="M138.2,171.5c11.6-0.4,22.4-0.9,29.6-1.4c6.4-0.4,8,0.1,10,4c1.4,2.6,0,10.4,0,10.4
							l-2.7,24.1c0,0-3.7,3.9-8,3c-4.1-0.8-3.6-2.9-3.6-2.9s1.5-14.8,2.9-23.9c0.3-2-1.8-1.4-1.8-1.4l-20.2,6.4c0,0-15,3.6-14.6-10
							C129.9,174.6,134.6,171.6,138.2,171.5z"/>
						
							<linearGradient id="_Path_115_1_" gradientUnits="userSpaceOnUse" x1="123" y1="176.0603" x2="159.4367" y2="176.0603" gradientTransform="matrix(1 0 0 -1 0 330)">
							<stop  offset="0" style="stop-color:#F2A23E"/>
							<stop  offset="0.58" style="stop-color:#FFBD58"/>
							<stop  offset="1" style="stop-color:#FFCD64"/>
						</linearGradient>
						<path id="_Path_115" class="st103" d="M134.5,133.1c-2.7,4.8-3.4,15.9-6.1,29.9c-1.1,5.1-2.9,10-5.4,14.6
							c0.1,0.3,2.7,1.6,4.9,2.4c0,0,7.4,2.8,13.4,2.2c2.9-0.2,5.6-1.1,8.1-2.5c3.8-2.3,4.4-5.8,4.8-8.4l5.1-32
							c0.4-3-6.8-8.7-9.8-10.7c-2.2-1.4-4.6-2.4-7.2-3C139,127.1,136.2,129.8,134.5,133.1z"/>
						
							<linearGradient id="_Path_116_1_" gradientUnits="userSpaceOnUse" x1="149.2184" y1="182.9827" x2="164.07" y2="182.9827" gradientTransform="matrix(1 0 0 -1 0 330)">
							<stop  offset="0" style="stop-color:#F2A23E"/>
							<stop  offset="0.58" style="stop-color:#FFBD58"/>
							<stop  offset="1" style="stop-color:#FFCD64"/>
						</linearGradient>
						<path id="_Path_116" class="st104" d="M164.1,155.5c-2.2,1.1-4.5,1.9-6.9,2.3c-4.8,0.6-6.9-0.6-6.9-0.6s-1.7-13.2-0.7-16.2
							c1.4-4.3,4.9-5.4,6.6-5s4.2,1.6,5.2,7.8C162,147.8,162.9,151.7,164.1,155.5z"/>
						<path id="_Path_117" class="st105" d="M164.2,109.2c0,0.7,0,1.3-0.1,2c-1,5.1-5.1,3.1-6.9,3.5c-4.2,1-5.2,7.9-13.3,5.3
							c-2.7-0.8-5.7-6.5-5.7-10.9c0.5-7.2,6.8-12.5,13.9-12C158.6,97.7,163.7,102.8,164.2,109.2L164.2,109.2z"/>
						<g id="_Group_201" class="st106">
							<path id="_Path_118" class="st11" d="M141.1,106.8c-0.1,0.5-0.6,0.8-1.1,0.6c0,0,0,0-0.1,0c-0.5-0.2-0.8-0.7-0.6-1.2
								c2.5-7.9,10.3-9.5,10.6-9.6v0.1C149.9,96.8,143.6,98.5,141.1,106.8z"/>
						</g>
					</g>
					<g id="_Group_202">
						<g id="_Group_203">
							<g id="_Group_204">
								<polygon id="_Path_119" class="st107" points="230.4,163.8 230.4,162.6 233.1,161.1 233.1,162.3 								"/>
								<polygon id="_Path_120" class="st108" points="230.4,163.8 230.4,162.6 223.9,158.8 223.9,160 								"/>
								<polygon id="_Path_121" class="st109" points="230.4,162.6 223.9,158.8 226.5,157.3 233.1,161.1 								"/>
								<polygon id="_Path_122" class="st108" points="229.1,161.1 226.4,159.6 226.4,131.7 229.1,133.2 								"/>
								<polygon id="_Path_123" class="st107" points="229.1,161.1 230.6,160.3 230.6,132.4 229.1,133.2 								"/>
							</g>
							<polygon id="_Path_124" class="st110" points="229.1,135 226.4,133.4 226.4,131.7 229.1,133.2 							"/>
							<polygon id="_Path_125" class="st110" points="229.1,135 230.6,134.1 230.6,132.4 229.1,133.2 							"/>
						</g>
						<g id="_Group_205">
							<g id="_Group_206">
								<polygon id="_Path_126" class="st107" points="284.3,194.9 284.3,193.7 286.9,192.1 286.9,193.3 								"/>
								<polygon id="_Path_127" class="st108" points="284.3,194.9 284.3,193.7 277.8,189.9 277.8,191.1 								"/>
								<polygon id="_Path_128" class="st109" points="284.3,193.7 277.8,189.9 280.4,188.4 286.9,192.1 								"/>
								<polygon id="_Path_129" class="st108" points="283,192.2 280.2,190.6 280.2,162.7 283,164.2 								"/>
								<polygon id="_Path_130" class="st107" points="283,192.2 284.4,191.3 284.4,163.4 283,164.2 								"/>
							</g>
							<polygon id="_Path_131" class="st110" points="283,166 280.2,164.5 280.2,162.7 283,164.2 							"/>
							<polygon id="_Path_132" class="st110" points="283,166 284.4,165.2 284.4,163.4 283,164.2 							"/>
						</g>
						<g id="_Group_207">
							<polygon id="_Path_133" class="st111" points="285.2,165.6 225.6,131.3 225.6,102.8 285.2,137.1 							"/>
						</g>
						<polygon id="_Path_134" class="st112" points="287.4,135.9 227.8,101.5 225.6,102.8 285.2,137.1 						"/>
						<polygon id="_Path_135" class="st113" points="287.4,135.9 287.4,164.4 285.2,165.6 285.2,137.1 						"/>
					</g>
					<g>
						<path d="M254.6,126.1 M254.6,143.8 M254.6,126.1"/>
					</g>
					<polygon class="st114" points="228.8,103.7 229.5,103.4 229.5,93.2 228.8,93.5 					"/>
					<polygon class="st115" points="228.8,103.7 228.1,103.4 228.1,93.2 228.8,93.5 					"/>
					<polygon class="st116" points="228.8,93.5 228.1,93.2 228.8,92.9 229.5,93.2 					"/>
					<polygon class="st114" points="284.1,135.4 284.8,135.1 284.8,124.9 284.1,125.2 					"/>
					<polygon class="st115" points="284.1,135.4 283.5,135.1 283.5,124.9 284.1,125.2 					"/>
					<polygon class="st116" points="284.1,125.2 283.5,124.9 284.1,124.6 284.8,124.9 					"/>
					<path class="st117" d="M282.2,120.3l1.4-0.4l0,0c0.4-0.1,0.8-0.1,1.2,0.1c1.6,0.8,2.6,2.5,2.6,4.3c0.1,0.9-0.4,1.8-1.2,2.2l0,0
						c-0.1,0-0.2,0.1-0.3,0.1l-1.2,0.4l-0.3-0.7c-1.4-0.9-2.2-2.4-2.2-4.1c0-0.4,0.1-0.8,0.2-1.2L282.2,120.3z"/>
					<path class="st118" d="M280.8,122.5c0,1.8,1,3.4,2.6,4.3c1.5,0.7,2.7-0.7,2.6-2.2c0-1.8-1-3.4-2.6-4.3
						C282,119.7,280.8,121.1,280.8,122.5z"/>
					<path class="st119" d="M281.3,122.7c0,1.4,0.8,2.8,2.1,3.4c1.2,0.5,2.1-0.6,2.1-1.8c0-1.4-0.8-2.7-2.1-3.4
						C282.2,120.5,281.3,121.6,281.3,122.7z"/>
					<path class="st120" d="M281.8,121.4c-0.1,0.2-0.1,0.5-0.1,0.8c0,1.4,0.8,2.8,2.1,3.4c0.6,0.3,1.3,0.1,1.7-0.4
						c-0.2,0.8-1,1.3-1.8,1.1c-0.1,0-0.2,0-0.2-0.1c-1.3-0.7-2.1-2-2.1-3.4C281.3,122.3,281.5,121.8,281.8,121.4z"/>
					<path class="st117" d="M226.8,88.6l1.4-0.4l0,0c0.4-0.1,0.8-0.1,1.2,0.1c1.6,0.8,2.6,2.5,2.6,4.3c0.1,0.9-0.4,1.8-1.3,2.2l0,0
						c-0.1,0-0.2,0.1-0.3,0.1l-1.2,0.4l-0.3-0.7c-1.4-0.9-2.2-2.4-2.2-4.1c0-0.4,0.1-0.8,0.2-1.2L226.8,88.6z"/>
					<path class="st118" d="M225.4,90.8c0,1.8,1,3.4,2.6,4.3c1.5,0.7,2.7-0.7,2.6-2.2c0-1.8-1-3.4-2.6-4.3
						C226.6,88,225.4,89.4,225.4,90.8z"/>
					<path class="st119" d="M226,91.1c0,1.4,0.8,2.8,2.1,3.4c1.2,0.5,2.1-0.6,2.1-1.8c0-1.4-0.8-2.8-2.1-3.4
						C226.9,88.8,225.9,89.9,226,91.1z"/>
					<path class="st120" d="M226.4,89.7c-0.1,0.2-0.1,0.5-0.1,0.8c0,1.4,0.8,2.7,2.1,3.4c0.6,0.3,1.3,0.1,1.7-0.4
						c-0.2,0.8-1,1.3-1.8,1.1c-0.1,0-0.1,0-0.2-0.1c-1.3-0.7-2.1-2-2.1-3.4C226,90.6,226.1,90.1,226.4,89.7z"/>
				</g>
			</g>
		</g>
	</g>
</g>
</svg>
